<?xml version="1.0" standalone="no"?>
 <!DOCTYPE svg PUBLIC "-//W3C//DTD SVG 1.1//EN" 
 "http://www.w3.org/Graphics/SVG/1.1/DTD/svg11.dtd"> 
<svg
  xmlns:svg="http://www.w3.org/2000/svg"
  xmlns="http://www.w3.org/2000/svg"
  xmlns:xlink="http://www.w3.org/1999/xlink"
  version="1.1"
  width="45.2120mm" height="75.0316mm" viewBox="0.0000 0.0000 45.2120 75.0316">
<title>SVG Image created as rp-fc2-In2_Cu.svg date 2025/04/12 13:18:40 </title>
  <desc>Image generated by PCBNEW </desc>
<g style="fill:#000000; fill-opacity:1.0000;stroke:#000000; stroke-opacity:1.0000;
stroke-linecap:round; stroke-linejoin:round;"
 transform="translate(0 0) scale(1 1)">
</g>
<g style="fill:none; 
stroke:#D0D2CD; stroke-width:0.0500; stroke-opacity:1; 
stroke-linecap:round; stroke-linejoin:round;">
<path d="M5.2050 0.0250 A5.0000 5.0000 0.0 0 0 0.2050 5.0250" />
<path d="M45.2050 5.0250 A5.0000 5.0000 0.0 0 0 40.2050 0.0250" />
<path d="M0.2050 5.0250
L0.2050 70.0250
" />
<path d="M45.2050 70.0250
L45.2050 5.0250
" />
<path d="M5.2050 75.0250
L40.2050 75.0250
" />
<path d="M0.2050 70.0250 A5.0000 5.0000 0.0 0 0 5.2050 75.0250" />
<path d="M40.2050 0.0250
L5.2050 0.0250
" />
<path d="M40.2050 75.0250 A5.0000 5.0000 0.0 0 0 45.2050 70.0250" />
</g>
<g style="fill:#D0D2CD; fill-opacity:1.0000; stroke:none;">
<circle cx="14.2050" cy="65.7750" r="0.6500" /> 
</g>
<g style="fill:#D0D2CD; fill-opacity:1.0000; stroke:none;">
<circle cx="14.2050" cy="72.2750" r="0.6500" /> 
</g>
<g style="fill:#D0D2CD; fill-opacity:1.0000; stroke:none;">
<circle cx="9.7050" cy="65.7750" r="0.6500" /> 
</g>
<g style="fill:#D0D2CD; fill-opacity:1.0000; stroke:none;">
<circle cx="9.7050" cy="72.2750" r="0.6500" /> 
</g>
<g style="fill:#D0D2CD; fill-opacity:1.0000; stroke:none;">
<circle cx="6.8100" cy="26.1350" r="0.3250" /> 
</g>
<g style="fill:#D0D2CD; fill-opacity:1.0000; stroke:none;">
<circle cx="6.8100" cy="31.9150" r="0.3250" /> 
</g>
<g style="fill:none; 
stroke:#D0D2CD; stroke-width:0.6000; stroke-opacity:1; 
stroke-linecap:round; stroke-linejoin:round;">
<path d="M7.8600 24.7050
L6.7600 24.7050
" />
<path d="M3.4300 24.7050
L2.8300 24.7050
" />
<path d="M7.8600 33.3450
L6.7600 33.3450
" />
<path d="M3.4300 33.3450
L2.8300 33.3450
" />
</g>
<g style="fill:#D0D2CD; fill-opacity:1.0000; stroke:none;">
<circle cx="40.2050" cy="70.0250" r="1.1000" /> 
</g>
<g style="fill:#D0D2CD; fill-opacity:1.0000; stroke:none;">
<circle cx="5.2050" cy="70.0250" r="1.1000" /> 
</g>
<g style="fill:#D0D2CD; fill-opacity:1.0000; stroke:none;">
<circle cx="40.2050" cy="5.0250" r="1.1000" /> 
</g>
<g style="fill:#D0D2CD; fill-opacity:1.0000; stroke:none;">
<circle cx="5.2050" cy="5.0250" r="1.1000" /> 
</g>
<g style="fill:#D0D2CD; fill-opacity:1.0000; stroke:none;">
<circle cx="37.8950" cy="20.8250" r="0.5000" /> 
</g>
<g style="fill:#D0D2CD; fill-opacity:1.0000; stroke:none;">
<circle cx="40.4350" cy="20.8250" r="0.5000" /> 
</g>
<g style="fill:#D0D2CD; fill-opacity:1.0000; stroke:none;">
<circle cx="42.9750" cy="20.8250" r="0.5000" /> 
</g>
<g style="fill:#D0D2CD; fill-opacity:1.0000; stroke:none;">
<circle cx="19.7850" cy="2.7450" r="0.5000" /> 
</g>
<g style="fill:#D0D2CD; fill-opacity:1.0000; stroke:none;">
<circle cx="17.2450" cy="2.7450" r="0.5000" /> 
</g>
<g style="fill:#D0D2CD; fill-opacity:1.0000; stroke:none;">
<circle cx="14.7050" cy="2.7450" r="0.5000" /> 
</g>
<g style="fill:#D0D2CD; fill-opacity:1.0000; stroke:none;">
<circle cx="12.1650" cy="2.7450" r="0.5000" /> 
</g>
<g style="fill:#D0D2CD; fill-opacity:1.0000; stroke:none;">
<circle cx="9.6250" cy="2.7450" r="0.5000" /> 
</g>
<g style="fill:#D0D2CD; fill-opacity:1.0000; stroke:none;">
<circle cx="19.7850" cy="5.2850" r="0.5000" /> 
</g>
<g style="fill:#D0D2CD; fill-opacity:1.0000; stroke:none;">
<circle cx="17.2450" cy="5.2850" r="0.5000" /> 
</g>
<g style="fill:#D0D2CD; fill-opacity:1.0000; stroke:none;">
<circle cx="14.7050" cy="5.2850" r="0.5000" /> 
</g>
<g style="fill:#D0D2CD; fill-opacity:1.0000; stroke:none;">
<circle cx="12.1650" cy="5.2850" r="0.5000" /> 
</g>
<g style="fill:#D0D2CD; fill-opacity:1.0000; stroke:none;">
<circle cx="9.6250" cy="5.2850" r="0.5000" /> 
</g>
<g style="fill:#D0D2CD; fill-opacity:1.0000; stroke:none;">
<circle cx="19.7850" cy="7.8250" r="0.5000" /> 
</g>
<g style="fill:#D0D2CD; fill-opacity:1.0000; stroke:none;">
<circle cx="17.2450" cy="7.8250" r="0.5000" /> 
</g>
<g style="fill:#D0D2CD; fill-opacity:1.0000; stroke:none;">
<circle cx="14.7050" cy="7.8250" r="0.5000" /> 
</g>
<g style="fill:#D0D2CD; fill-opacity:1.0000; stroke:none;">
<circle cx="12.1650" cy="7.8250" r="0.5000" /> 
</g>
<g style="fill:#D0D2CD; fill-opacity:1.0000; stroke:none;">
<circle cx="9.6250" cy="7.8250" r="0.5000" /> 
</g>
<g style="fill:#D0D2CD; fill-opacity:1.0000; stroke:none;">
<circle cx="41.9050" cy="11.9250" r="0.5000" /> 
</g>
<g style="fill:#D0D2CD; fill-opacity:1.0000; stroke:none;">
<circle cx="38.3695" cy="15.4605" r="0.5000" /> 
</g>
<g style="fill:#D0D2CD; fill-opacity:1.0000; stroke:none;">
<circle cx="32.8050" cy="8.7250" r="0.5000" /> 
</g>
<g style="fill:#D0D2CD; fill-opacity:1.0000; stroke:none;">
<circle cx="32.8050" cy="3.7250" r="0.5000" /> 
</g>
<g style="fill:#D0D2CD; fill-opacity:1.0000; stroke:none;">
<circle cx="34.2050" cy="65.7750" r="0.6500" /> 
</g>
<g style="fill:#D0D2CD; fill-opacity:1.0000; stroke:none;">
<circle cx="34.2050" cy="72.2750" r="0.6500" /> 
</g>
<g style="fill:#D0D2CD; fill-opacity:1.0000; stroke:none;">
<circle cx="19.3550" cy="49.1750" r="0.1062" /> 
</g>
<g style="fill:#D0D2CD; fill-opacity:1.0000; stroke:none;">
<circle cx="19.3550" cy="50.0250" r="0.1062" /> 
</g>
<g style="fill:#D0D2CD; fill-opacity:1.0000; stroke:none;">
<circle cx="19.3550" cy="50.8750" r="0.1062" /> 
</g>
<g style="fill:#D0D2CD; fill-opacity:1.0000; stroke:none;">
<circle cx="20.2050" cy="49.1750" r="0.1062" /> 
</g>
<g style="fill:#D0D2CD; fill-opacity:1.0000; stroke:none;">
<circle cx="20.2050" cy="50.0250" r="0.1062" /> 
</g>
<g style="fill:#D0D2CD; fill-opacity:1.0000; stroke:none;">
<circle cx="20.2050" cy="50.8750" r="0.1062" /> 
</g>
<g style="fill:#D0D2CD; fill-opacity:1.0000; stroke:none;">
<circle cx="21.0550" cy="49.1750" r="0.1062" /> 
</g>
<g style="fill:#D0D2CD; fill-opacity:1.0000; stroke:none;">
<circle cx="21.0550" cy="50.0250" r="0.1062" /> 
</g>
<g style="fill:#D0D2CD; fill-opacity:1.0000; stroke:none;">
<circle cx="21.0550" cy="50.8750" r="0.1062" /> 
<path style="fill:#CE7D2C; fill-opacity:1.0000; stroke:none;fill-rule:evenodd;"
d="M 13.0800,66.9000
13.0800,64.6500
15.3300,64.6500
15.3300,66.9000
Z" /> 
</g>
<g style="fill:#CE7D2C; fill-opacity:1.0000; stroke:none;">
<circle cx="14.2050" cy="72.2750" r="1.1250" /> 
<path style="fill:#CE7D2C; fill-opacity:1.0000; stroke:none;fill-rule:evenodd;"
d="M 8.5800,66.9000
8.5800,64.6500
10.8300,64.6500
10.8300,66.9000
Z" /> 
</g>
<g style="fill:#CE7D2C; fill-opacity:1.0000; stroke:none;">
<circle cx="9.7050" cy="72.2750" r="1.1250" /> 
</g>
<g style="fill:none; 
stroke:#CE7D2C; stroke-width:1.0000; stroke-opacity:1; 
stroke-linecap:round; stroke-linejoin:round;">
<path d="M7.8600 24.7050
L6.7600 24.7050
" />
<path d="M3.4300 24.7050
L2.8300 24.7050
" />
<path d="M7.8600 33.3450
L6.7600 33.3450
" />
<path d="M3.4300 33.3450
L2.8300 33.3450
" />
</g>
<g style="fill:#CE7D2C; fill-opacity:1.0000; stroke:none;">
<circle cx="40.2050" cy="70.0250" r="1.9000" /> 
</g>
<g style="fill:#CE7D2C; fill-opacity:1.0000; stroke:none;">
<circle cx="5.2050" cy="70.0250" r="1.9000" /> 
</g>
<g style="fill:#CE7D2C; fill-opacity:1.0000; stroke:none;">
<circle cx="40.2050" cy="5.0250" r="1.9000" /> 
</g>
<g style="fill:#CE7D2C; fill-opacity:1.0000; stroke:none;">
<circle cx="5.2050" cy="5.0250" r="1.9000" /> 
</g>
<g style="fill:#CE7D2C; fill-opacity:1.0000; stroke:none;">
<circle cx="37.8950" cy="20.8250" r="0.8500" /> 
</g>
<g style="fill:#CE7D2C; fill-opacity:1.0000; stroke:none;">
<circle cx="40.4350" cy="20.8250" r="0.8500" /> 
<path style="fill:#CE7D2C; fill-opacity:1.0000; stroke:none;fill-rule:evenodd;"
d="M 42.3750,21.6750
42.2793,21.6560
42.1982,21.6018
42.1440,21.5207
42.1250,21.4250
42.1250,20.2250
42.1440,20.1293
42.1982,20.0482
42.2793,19.9940
42.3750,19.9750
43.5750,19.9750
43.6707,19.9940
43.7518,20.0482
43.8060,20.1293
43.8250,20.2250
43.8250,21.4250
43.8060,21.5207
43.7518,21.6018
43.6707,21.6560
43.5750,21.6750
Z" /> 
<circle cx="19.7850" cy="2.7450" r="0.8500" /> 
<circle cx="17.2450" cy="2.7450" r="0.8500" /> 
<circle cx="14.7050" cy="2.7450" r="0.8500" /> 
<circle cx="12.1650" cy="2.7450" r="0.8500" /> 
<circle cx="9.6250" cy="2.7450" r="0.8500" /> 
</g>
<g style="fill:#CE7D2C; fill-opacity:1.0000; stroke:none;">
<circle cx="19.7850" cy="5.2850" r="0.8500" /> 
<circle cx="17.2450" cy="5.2850" r="0.8500" /> 
<circle cx="14.7050" cy="5.2850" r="0.8500" /> 
<circle cx="12.1650" cy="5.2850" r="0.8500" /> 
<circle cx="9.6250" cy="5.2850" r="0.8500" /> 
</g>
<g style="fill:#CE7D2C; fill-opacity:1.0000; stroke:none;">
<circle cx="19.7850" cy="7.8250" r="0.8500" /> 
<circle cx="17.2450" cy="7.8250" r="0.8500" /> 
<circle cx="14.7050" cy="7.8250" r="0.8500" /> 
<circle cx="12.1650" cy="7.8250" r="0.8500" /> 
<circle cx="9.6250" cy="7.8250" r="0.8500" /> 
</g>
<g style="fill:#CE7D2C; fill-opacity:1.0000; stroke:none;">
<circle cx="41.9050" cy="11.9250" r="0.8000" /> 
</g>
<g style="fill:#CE7D2C; fill-opacity:1.0000; stroke:none;">
<circle cx="38.3695" cy="15.4605" r="0.8000" /> 
</g>
<g style="fill:#CE7D2C; fill-opacity:1.0000; stroke:none;">
<circle cx="32.8050" cy="8.7250" r="0.8000" /> 
</g>
<g style="fill:#CE7D2C; fill-opacity:1.0000; stroke:none;">
<circle cx="32.8050" cy="3.7250" r="0.8000" /> 
<path style="fill:#CE7D2C; fill-opacity:1.0000; stroke:none;fill-rule:evenodd;"
d="M 33.0800,66.9000
33.0800,64.6500
35.3300,64.6500
35.3300,66.9000
Z" /> 
</g>
<g style="fill:#CE7D2C; fill-opacity:1.0000; stroke:none;">
<circle cx="34.2050" cy="72.2750" r="1.1250" /> 
</g>
<g style="fill:#CE7D2C; fill-opacity:1.0000; stroke:none;">
<circle cx="19.3550" cy="49.1750" r="0.2125" /> 
</g>
<g style="fill:#CE7D2C; fill-opacity:1.0000; stroke:none;">
<circle cx="19.3550" cy="50.0250" r="0.2125" /> 
</g>
<g style="fill:#CE7D2C; fill-opacity:1.0000; stroke:none;">
<circle cx="19.3550" cy="50.8750" r="0.2125" /> 
</g>
<g style="fill:#CE7D2C; fill-opacity:1.0000; stroke:none;">
<circle cx="20.2050" cy="49.1750" r="0.2125" /> 
</g>
<g style="fill:#CE7D2C; fill-opacity:1.0000; stroke:none;">
<circle cx="20.2050" cy="50.0250" r="0.2125" /> 
</g>
<g style="fill:#CE7D2C; fill-opacity:1.0000; stroke:none;">
<circle cx="20.2050" cy="50.8750" r="0.2125" /> 
</g>
<g style="fill:#CE7D2C; fill-opacity:1.0000; stroke:none;">
<circle cx="21.0550" cy="49.1750" r="0.2125" /> 
</g>
<g style="fill:#CE7D2C; fill-opacity:1.0000; stroke:none;">
<circle cx="21.0550" cy="50.0250" r="0.2125" /> 
</g>
<g style="fill:#CE7D2C; fill-opacity:1.0000; stroke:none;">
<circle cx="21.0550" cy="50.8750" r="0.2125" /> 
</g>
<g style="fill:#ECECEC; fill-opacity:1.0000; stroke:none;">
<circle cx="24.7050" cy="45.5250" r="0.3000" /> 
</g>
<g style="fill:#ECECEC; fill-opacity:1.0000; stroke:none;">
<circle cx="22.6050" cy="47.6250" r="0.3000" /> 
</g>
<g style="fill:#ECECEC; fill-opacity:1.0000; stroke:none;">
<circle cx="16.8550" cy="60.4250" r="0.3000" /> 
</g>
<g style="fill:#ECECEC; fill-opacity:1.0000; stroke:none;">
<circle cx="19.7050" cy="66.0750" r="0.3000" /> 
</g>
<g style="fill:#ECECEC; fill-opacity:1.0000; stroke:none;">
<circle cx="22.1550" cy="65.0750" r="0.3000" /> 
</g>
<g style="fill:#ECECEC; fill-opacity:1.0000; stroke:none;">
<circle cx="22.2050" cy="61.9750" r="0.3000" /> 
</g>
<g style="fill:#ECECEC; fill-opacity:1.0000; stroke:none;">
<circle cx="22.2050" cy="63.5250" r="0.3000" /> 
</g>
<g style="fill:#ECECEC; fill-opacity:1.0000; stroke:none;">
<circle cx="23.9550" cy="64.5250" r="0.3000" /> 
</g>
<g style="fill:#ECECEC; fill-opacity:1.0000; stroke:none;">
<circle cx="24.6050" cy="54.8250" r="0.3000" /> 
</g>
<g style="fill:#ECECEC; fill-opacity:1.0000; stroke:none;">
<circle cx="23.7050" cy="61.0250" r="0.3000" /> 
</g>
<g style="fill:#ECECEC; fill-opacity:1.0000; stroke:none;">
<circle cx="10.9050" cy="48.9250" r="0.3000" /> 
</g>
<g style="fill:#ECECEC; fill-opacity:1.0000; stroke:none;">
<circle cx="9.7050" cy="46.9750" r="0.3000" /> 
</g>
<g style="fill:#ECECEC; fill-opacity:1.0000; stroke:none;">
<circle cx="9.0050" cy="48.7250" r="0.3000" /> 
</g>
<g style="fill:#ECECEC; fill-opacity:1.0000; stroke:none;">
<circle cx="10.9550" cy="46.0250" r="0.3000" /> 
</g>
<g style="fill:#ECECEC; fill-opacity:1.0000; stroke:none;">
<circle cx="7.2050" cy="49.2750" r="0.3000" /> 
</g>
<g style="fill:#ECECEC; fill-opacity:1.0000; stroke:none;">
<circle cx="19.4550" cy="69.0250" r="0.3000" /> 
</g>
<g style="fill:#ECECEC; fill-opacity:1.0000; stroke:none;">
<circle cx="30.7050" cy="57.0250" r="0.3000" /> 
</g>
<g style="fill:#ECECEC; fill-opacity:1.0000; stroke:none;">
<circle cx="31.4550" cy="47.2750" r="0.3000" /> 
</g>
<g style="fill:#ECECEC; fill-opacity:1.0000; stroke:none;">
<circle cx="29.9550" cy="45.5250" r="0.3000" /> 
</g>
<g style="fill:#ECECEC; fill-opacity:1.0000; stroke:none;">
<circle cx="34.4550" cy="24.5250" r="0.3000" /> 
</g>
<g style="fill:#ECECEC; fill-opacity:1.0000; stroke:none;">
<circle cx="33.9550" cy="21.0250" r="0.3000" /> 
</g>
<g style="fill:#ECECEC; fill-opacity:1.0000; stroke:none;">
<circle cx="29.2050" cy="14.0250" r="0.3000" /> 
</g>
<g style="fill:#ECECEC; fill-opacity:1.0000; stroke:none;">
<circle cx="35.9550" cy="24.5250" r="0.3000" /> 
</g>
<g style="fill:#ECECEC; fill-opacity:1.0000; stroke:none;">
<circle cx="33.9550" cy="23.0250" r="0.3000" /> 
</g>
<g style="fill:#ECECEC; fill-opacity:1.0000; stroke:none;">
<circle cx="27.2050" cy="63.0250" r="0.3000" /> 
</g>
<g style="fill:#ECECEC; fill-opacity:1.0000; stroke:none;">
<circle cx="26.4550" cy="62.5250" r="0.3000" /> 
</g>
<g style="fill:#ECECEC; fill-opacity:1.0000; stroke:none;">
<circle cx="18.9550" cy="68.2750" r="0.3000" /> 
</g>
<g style="fill:#ECECEC; fill-opacity:1.0000; stroke:none;">
<circle cx="18.4550" cy="67.5250" r="0.3000" /> 
</g>
<g style="fill:#ECECEC; fill-opacity:1.0000; stroke:none;">
<circle cx="15.0550" cy="60.8750" r="0.3000" /> 
</g>
<g style="fill:#ECECEC; fill-opacity:1.0000; stroke:none;">
<circle cx="5.7050" cy="64.7750" r="0.3000" /> 
</g>
<g style="fill:#ECECEC; fill-opacity:1.0000; stroke:none;">
<circle cx="6.9550" cy="64.7750" r="0.3000" /> 
</g>
<g style="fill:#ECECEC; fill-opacity:1.0000; stroke:none;">
<circle cx="31.4550" cy="72.0250" r="0.3000" /> 
</g>
<g style="fill:#ECECEC; fill-opacity:1.0000; stroke:none;">
<circle cx="37.2050" cy="67.2750" r="0.3000" /> 
</g>
<g style="fill:#ECECEC; fill-opacity:1.0000; stroke:none;">
<circle cx="6.2050" cy="49.2750" r="0.3000" /> 
</g>
<g style="fill:#ECECEC; fill-opacity:1.0000; stroke:none;">
<circle cx="6.9550" cy="48.0250" r="0.3000" /> 
</g>
<g style="fill:#ECECEC; fill-opacity:1.0000; stroke:none;">
<circle cx="10.0050" cy="48.9250" r="0.3000" /> 
</g>
<g style="fill:#ECECEC; fill-opacity:1.0000; stroke:none;">
<circle cx="9.2050" cy="47.7750" r="0.3000" /> 
</g>
<g style="fill:#ECECEC; fill-opacity:1.0000; stroke:none;">
<circle cx="9.9550" cy="46.0250" r="0.3000" /> 
</g>
<g style="fill:#ECECEC; fill-opacity:1.0000; stroke:none;">
<circle cx="11.9550" cy="46.0250" r="0.3000" /> 
</g>
<g style="fill:#ECECEC; fill-opacity:1.0000; stroke:none;">
<circle cx="13.2050" cy="16.7750" r="0.3000" /> 
</g>
<g style="fill:#ECECEC; fill-opacity:1.0000; stroke:none;">
<circle cx="12.0550" cy="22.6750" r="0.3000" /> 
</g>
<g style="fill:#ECECEC; fill-opacity:1.0000; stroke:none;">
<circle cx="31.4050" cy="46.3750" r="0.3000" /> 
</g>
<g style="fill:#ECECEC; fill-opacity:1.0000; stroke:none;">
<circle cx="30.8550" cy="45.7750" r="0.3000" /> 
</g>
<g style="fill:#ECECEC; fill-opacity:1.0000; stroke:none;">
<circle cx="12.3050" cy="19.7750" r="0.3000" /> 
</g>
<g style="fill:#ECECEC; fill-opacity:1.0000; stroke:none;">
<circle cx="13.4550" cy="19.7750" r="0.3000" /> 
</g>
<g style="fill:#ECECEC; fill-opacity:1.0000; stroke:none;">
<circle cx="13.4550" cy="18.7250" r="0.3000" /> 
</g>
<g style="fill:#ECECEC; fill-opacity:1.0000; stroke:none;">
<circle cx="12.3050" cy="18.7250" r="0.3000" /> 
</g>
<g style="fill:#ECECEC; fill-opacity:1.0000; stroke:none;">
<circle cx="31.3050" cy="21.2750" r="0.3000" /> 
</g>
<g style="fill:#ECECEC; fill-opacity:1.0000; stroke:none;">
<circle cx="28.8050" cy="21.2750" r="0.3000" /> 
</g>
<g style="fill:#ECECEC; fill-opacity:1.0000; stroke:none;">
<circle cx="30.0550" cy="21.2750" r="0.3000" /> 
</g>
<g style="fill:#ECECEC; fill-opacity:1.0000; stroke:none;">
<circle cx="27.6550" cy="20.9250" r="0.3000" /> 
</g>
<g style="fill:#ECECEC; fill-opacity:1.0000; stroke:none;">
<circle cx="26.7050" cy="20.0750" r="0.3000" /> 
</g>
<g style="fill:#ECECEC; fill-opacity:1.0000; stroke:none;">
<circle cx="25.8550" cy="19.2250" r="0.3000" /> 
</g>
<g style="fill:#ECECEC; fill-opacity:1.0000; stroke:none;">
<circle cx="22.3050" cy="16.0250" r="0.3000" /> 
</g>
<g style="fill:#ECECEC; fill-opacity:1.0000; stroke:none;">
<circle cx="21.5050" cy="14.9750" r="0.3000" /> 
</g>
<g style="fill:#ECECEC; fill-opacity:1.0000; stroke:none;">
<circle cx="21.5050" cy="13.7250" r="0.3000" /> 
</g>
<g style="fill:#ECECEC; fill-opacity:1.0000; stroke:none;">
<circle cx="24.8050" cy="18.6250" r="0.3000" /> 
</g>
<g style="fill:#ECECEC; fill-opacity:1.0000; stroke:none;">
<circle cx="21.5050" cy="11.2250" r="0.3000" /> 
</g>
<g style="fill:#ECECEC; fill-opacity:1.0000; stroke:none;">
<circle cx="23.2050" cy="17.0750" r="0.3000" /> 
</g>
<g style="fill:#ECECEC; fill-opacity:1.0000; stroke:none;">
<circle cx="21.5050" cy="12.4750" r="0.3000" /> 
</g>
<g style="fill:#ECECEC; fill-opacity:1.0000; stroke:none;">
<circle cx="10.9050" cy="20.9250" r="0.3000" /> 
</g>
<g style="fill:#ECECEC; fill-opacity:1.0000; stroke:none;">
<circle cx="26.5050" cy="17.9250" r="0.3000" /> 
</g>
<g style="fill:#ECECEC; fill-opacity:1.0000; stroke:none;">
<circle cx="31.2050" cy="17.9250" r="0.3000" /> 
</g>
<g style="fill:#ECECEC; fill-opacity:1.0000; stroke:none;">
<circle cx="30.5050" cy="17.3250" r="0.3000" /> 
</g>
<g style="fill:#ECECEC; fill-opacity:1.0000; stroke:none;">
<circle cx="23.7050" cy="16.0250" r="0.3000" /> 
</g>
<g style="fill:#ECECEC; fill-opacity:1.0000; stroke:none;">
<circle cx="2.9050" cy="14.1250" r="0.3000" /> 
</g>
<g style="fill:#ECECEC; fill-opacity:1.0000; stroke:none;">
<circle cx="11.7050" cy="27.7750" r="0.3000" /> 
</g>
<g style="fill:#ECECEC; fill-opacity:1.0000; stroke:none;">
<circle cx="11.9550" cy="30.5250" r="0.3000" /> 
</g>
<g style="fill:#ECECEC; fill-opacity:1.0000; stroke:none;">
<circle cx="3.9550" cy="35.2750" r="0.3000" /> 
</g>
<g style="fill:#ECECEC; fill-opacity:1.0000; stroke:none;">
<circle cx="43.9550" cy="25.0250" r="0.3000" /> 
</g>
<g style="fill:#ECECEC; fill-opacity:1.0000; stroke:none;">
<circle cx="41.4550" cy="25.0250" r="0.3000" /> 
</g>
<g style="fill:#ECECEC; fill-opacity:1.0000; stroke:none;">
<circle cx="38.9550" cy="25.0250" r="0.3000" /> 
</g>
<g style="fill:#ECECEC; fill-opacity:1.0000; stroke:none;">
<circle cx="32.2050" cy="11.5250" r="0.3000" /> 
</g>
<g style="fill:#ECECEC; fill-opacity:1.0000; stroke:none;">
<circle cx="31.4550" cy="10.7750" r="0.3000" /> 
</g>
<g style="fill:#ECECEC; fill-opacity:1.0000; stroke:none;">
<circle cx="33.7050" cy="13.0250" r="0.3000" /> 
</g>
<g style="fill:#ECECEC; fill-opacity:1.0000; stroke:none;">
<circle cx="34.4550" cy="13.7750" r="0.3000" /> 
</g>
<g style="fill:#ECECEC; fill-opacity:1.0000; stroke:none;">
<circle cx="35.9550" cy="23.2750" r="0.3000" /> 
</g>
<g style="fill:#ECECEC; fill-opacity:1.0000; stroke:none;">
<circle cx="36.9550" cy="24.2750" r="0.3000" /> 
</g>
<g style="fill:#ECECEC; fill-opacity:1.0000; stroke:none;">
<circle cx="8.9550" cy="10.0250" r="0.3000" /> 
</g>
<g style="fill:#ECECEC; fill-opacity:1.0000; stroke:none;">
<circle cx="16.4550" cy="10.0250" r="0.3000" /> 
</g>
<g style="fill:#ECECEC; fill-opacity:1.0000; stroke:none;">
<circle cx="18.9550" cy="10.0250" r="0.3000" /> 
</g>
<g style="fill:#ECECEC; fill-opacity:1.0000; stroke:none;">
<circle cx="21.4550" cy="10.0250" r="0.3000" /> 
</g>
<g style="fill:#ECECEC; fill-opacity:1.0000; stroke:none;">
<circle cx="23.9550" cy="10.0250" r="0.3000" /> 
</g>
<g style="fill:#ECECEC; fill-opacity:1.0000; stroke:none;">
<circle cx="26.4550" cy="10.0250" r="0.3000" /> 
</g>
<g style="fill:#ECECEC; fill-opacity:1.0000; stroke:none;">
<circle cx="28.9550" cy="10.0250" r="0.3000" /> 
</g>
<g style="fill:#ECECEC; fill-opacity:1.0000; stroke:none;">
<circle cx="35.2050" cy="16.2750" r="0.3000" /> 
</g>
<g style="fill:#ECECEC; fill-opacity:1.0000; stroke:none;">
<circle cx="35.2050" cy="18.7750" r="0.3000" /> 
</g>
<g style="fill:#ECECEC; fill-opacity:1.0000; stroke:none;">
<circle cx="35.2050" cy="21.2750" r="0.3000" /> 
</g>
<g style="fill:#ECECEC; fill-opacity:1.0000; stroke:none;">
<circle cx="42.7050" cy="25.0250" r="0.3000" /> 
</g>
<g style="fill:#ECECEC; fill-opacity:1.0000; stroke:none;">
<circle cx="40.2050" cy="25.0250" r="0.3000" /> 
</g>
<g style="fill:#ECECEC; fill-opacity:1.0000; stroke:none;">
<circle cx="37.7050" cy="25.0250" r="0.3000" /> 
</g>
<g style="fill:#ECECEC; fill-opacity:1.0000; stroke:none;">
<circle cx="7.7050" cy="10.0250" r="0.3000" /> 
</g>
<g style="fill:#ECECEC; fill-opacity:1.0000; stroke:none;">
<circle cx="10.2050" cy="10.0250" r="0.3000" /> 
</g>
<g style="fill:#ECECEC; fill-opacity:1.0000; stroke:none;">
<circle cx="15.2050" cy="10.0250" r="0.3000" /> 
</g>
<g style="fill:#ECECEC; fill-opacity:1.0000; stroke:none;">
<circle cx="20.2050" cy="10.0250" r="0.3000" /> 
</g>
<g style="fill:#ECECEC; fill-opacity:1.0000; stroke:none;">
<circle cx="22.7050" cy="10.0250" r="0.3000" /> 
</g>
<g style="fill:#ECECEC; fill-opacity:1.0000; stroke:none;">
<circle cx="25.2050" cy="10.0250" r="0.3000" /> 
</g>
<g style="fill:#ECECEC; fill-opacity:1.0000; stroke:none;">
<circle cx="27.7050" cy="10.0250" r="0.3000" /> 
</g>
<g style="fill:#ECECEC; fill-opacity:1.0000; stroke:none;">
<circle cx="30.2050" cy="10.0250" r="0.3000" /> 
</g>
<g style="fill:#ECECEC; fill-opacity:1.0000; stroke:none;">
<circle cx="32.9550" cy="12.2750" r="0.3000" /> 
</g>
<g style="fill:#ECECEC; fill-opacity:1.0000; stroke:none;">
<circle cx="35.2050" cy="15.0250" r="0.3000" /> 
</g>
<g style="fill:#ECECEC; fill-opacity:1.0000; stroke:none;">
<circle cx="35.2050" cy="17.5250" r="0.3000" /> 
</g>
<g style="fill:#ECECEC; fill-opacity:1.0000; stroke:none;">
<circle cx="35.2050" cy="20.0250" r="0.3000" /> 
</g>
<g style="fill:#ECECEC; fill-opacity:1.0000; stroke:none;">
<circle cx="2.4050" cy="17.2250" r="0.3000" /> 
</g>
<g style="fill:#ECECEC; fill-opacity:1.0000; stroke:none;">
<circle cx="2.4050" cy="16.4250" r="0.3000" /> 
</g>
<g style="fill:#ECECEC; fill-opacity:1.0000; stroke:none;">
<circle cx="6.2050" cy="14.7250" r="0.3000" /> 
</g>
<g style="fill:#ECECEC; fill-opacity:1.0000; stroke:none;">
<circle cx="6.2050" cy="13.8250" r="0.3000" /> 
</g>
<g style="fill:#ECECEC; fill-opacity:1.0000; stroke:none;">
<circle cx="9.3050" cy="32.2250" r="0.3000" /> 
</g>
<g style="fill:#ECECEC; fill-opacity:1.0000; stroke:none;">
<circle cx="10.4550" cy="32.5250" r="0.3000" /> 
</g>
<g style="fill:#ECECEC; fill-opacity:1.0000; stroke:none;">
<circle cx="9.7550" cy="25.0750" r="0.3000" /> 
</g>
<g style="fill:#ECECEC; fill-opacity:1.0000; stroke:none;">
<circle cx="9.7550" cy="24.1750" r="0.3000" /> 
</g>
<g style="fill:#ECECEC; fill-opacity:1.0000; stroke:none;">
<circle cx="10.3050" cy="31.4250" r="0.3000" /> 
</g>
<g style="fill:#ECECEC; fill-opacity:1.0000; stroke:none;">
<circle cx="11.2050" cy="31.4250" r="0.3000" /> 
</g>
<g style="fill:#ECECEC; fill-opacity:1.0000; stroke:none;">
<circle cx="10.3050" cy="26.6250" r="0.3000" /> 
</g>
<g style="fill:#ECECEC; fill-opacity:1.0000; stroke:none;">
<circle cx="11.2050" cy="26.6250" r="0.3000" /> 
</g>
<g style="fill:#ECECEC; fill-opacity:1.0000; stroke:none;">
<circle cx="6.7550" cy="21.1750" r="0.3000" /> 
</g>
<g style="fill:#ECECEC; fill-opacity:1.0000; stroke:none;">
<circle cx="1.7050" cy="21.7250" r="0.3000" /> 
</g>
<g style="fill:#ECECEC; fill-opacity:1.0000; stroke:none;">
<circle cx="2.2050" cy="7.1250" r="0.3000" /> 
</g>
<g style="fill:#ECECEC; fill-opacity:1.0000; stroke:none;">
<circle cx="16.8050" cy="62.4750" r="0.3000" /> 
</g>
<g style="fill:#ECECEC; fill-opacity:1.0000; stroke:none;">
<circle cx="29.3050" cy="50.5250" r="0.3000" /> 
</g>
<g style="fill:#ECECEC; fill-opacity:1.0000; stroke:none;">
<circle cx="27.3050" cy="54.8250" r="0.3000" /> 
</g>
<g style="fill:#ECECEC; fill-opacity:1.0000; stroke:none;">
<circle cx="18.0550" cy="66.0750" r="0.3000" /> 
</g>
<g style="fill:#ECECEC; fill-opacity:1.0000; stroke:none;">
<circle cx="18.0050" cy="41.1250" r="0.3000" /> 
</g>
<g style="fill:#ECECEC; fill-opacity:1.0000; stroke:none;">
<circle cx="26.5050" cy="43.9250" r="0.3000" /> 
</g>
<g style="fill:#ECECEC; fill-opacity:1.0000; stroke:none;">
<circle cx="20.7050" cy="59.8250" r="0.3000" /> 
</g>
<g style="fill:#ECECEC; fill-opacity:1.0000; stroke:none;">
<circle cx="16.9050" cy="64.7250" r="0.3000" /> 
</g>
<g style="fill:#ECECEC; fill-opacity:1.0000; stroke:none;">
<circle cx="25.2050" cy="46.6250" r="0.3000" /> 
</g>
<g style="fill:#ECECEC; fill-opacity:1.0000; stroke:none;">
<circle cx="18.7050" cy="58.0250" r="0.3000" /> 
</g>
<g style="fill:#ECECEC; fill-opacity:1.0000; stroke:none;">
<circle cx="29.3050" cy="49.6250" r="0.3000" /> 
</g>
<g style="fill:#ECECEC; fill-opacity:1.0000; stroke:none;">
<circle cx="21.4050" cy="60.7250" r="0.3000" /> 
</g>
<g style="fill:#ECECEC; fill-opacity:1.0000; stroke:none;">
<circle cx="19.8050" cy="61.0250" r="0.3000" /> 
</g>
<g style="fill:#ECECEC; fill-opacity:1.0000; stroke:none;">
<circle cx="17.3550" cy="59.0750" r="0.3000" /> 
</g>
<g style="fill:#ECECEC; fill-opacity:1.0000; stroke:none;">
<circle cx="12.8050" cy="51.5250" r="0.3000" /> 
</g>
<g style="fill:#ECECEC; fill-opacity:1.0000; stroke:none;">
<circle cx="21.2050" cy="66.0750" r="0.3000" /> 
</g>
<g style="fill:#ECECEC; fill-opacity:1.0000; stroke:none;">
<circle cx="13.0050" cy="43.2250" r="0.3000" /> 
</g>
<g style="fill:#ECECEC; fill-opacity:1.0000; stroke:none;">
<circle cx="13.2050" cy="46.0250" r="0.3000" /> 
</g>
<g style="fill:#ECECEC; fill-opacity:1.0000; stroke:none;">
<circle cx="12.6050" cy="41.0250" r="0.3000" /> 
</g>
<g style="fill:#ECECEC; fill-opacity:1.0000; stroke:none;">
<circle cx="26.8050" cy="49.6250" r="0.3000" /> 
</g>
<g style="fill:#ECECEC; fill-opacity:1.0000; stroke:none;">
<circle cx="20.8050" cy="47.9250" r="0.3000" /> 
</g>
<g style="fill:#ECECEC; fill-opacity:1.0000; stroke:none;">
<circle cx="13.5050" cy="48.9250" r="0.3000" /> 
</g>
<g style="fill:#ECECEC; fill-opacity:1.0000; stroke:none;">
<circle cx="20.2050" cy="52.1250" r="0.3000" /> 
</g>
<g style="fill:#ECECEC; fill-opacity:1.0000; stroke:none;">
<circle cx="20.8050" cy="42.3250" r="0.3000" /> 
</g>
<g style="fill:#ECECEC; fill-opacity:1.0000; stroke:none;">
<circle cx="20.8050" cy="56.3250" r="0.3000" /> 
</g>
<g style="fill:#ECECEC; fill-opacity:1.0000; stroke:none;">
<circle cx="18.1050" cy="49.2250" r="0.3000" /> 
</g>
<g style="fill:#ECECEC; fill-opacity:1.0000; stroke:none;">
<circle cx="22.3050" cy="49.6250" r="0.3000" /> 
</g>
<g style="fill:#ECECEC; fill-opacity:1.0000; stroke:none;">
<circle cx="20.8050" cy="41.5250" r="0.3000" /> 
<path style="fill:#CE7D2C; fill-opacity:1.0000; stroke:none;fill-rule:evenodd;"
d="M 40.2072,0.5256
40.5929,0.5424
40.6014,0.5432
40.9821,0.5933
40.9905,0.5948
41.3653,0.6779
41.3737,0.6801
41.7398,0.7956
41.7479,0.7985
42.1026,0.9454
42.1104,0.9491
42.4509,1.1263
42.4584,1.1306
42.7822,1.3369
42.7892,1.3419
43.0938,1.5756
43.1004,1.5811
43.3835,1.8405
43.3895,1.8465
43.6489,2.1296
43.6544,2.1362
43.8881,2.4408
43.8931,2.4478
44.0994,2.7716
44.1037,2.7791
44.2809,3.1196
44.2846,3.1274
44.4315,3.4821
44.4344,3.4902
44.5499,3.8563
44.5521,3.8647
44.6352,4.2394
44.6367,4.2480
44.6868,4.6286
44.6876,4.6372
44.7044,5.0228
44.7045,5.0272
44.7045,70.0228
44.7044,70.0272
44.6876,70.4128
44.6868,70.4214
44.6367,70.8020
44.6352,70.8106
44.5521,71.1853
44.5499,71.1937
44.4344,71.5598
44.4315,71.5679
44.2846,71.9226
44.2809,71.9304
44.1037,72.2709
44.0994,72.2784
43.8931,72.6022
43.8881,72.6092
43.6544,72.9138
43.6489,72.9204
43.3895,73.2034
43.3834,73.2095
43.1004,73.4689
43.0938,73.4744
42.7892,73.7081
42.7822,73.7131
42.4584,73.9194
42.4509,73.9237
42.1104,74.1009
42.1026,74.1046
41.7479,74.2515
41.7398,74.2544
41.3737,74.3699
41.3653,74.3721
40.9906,74.4552
40.9820,74.4567
40.6014,74.5068
40.5928,74.5076
40.2072,74.5244
40.2028,74.5245
5.2072,74.5245
5.2028,74.5244
4.8172,74.5076
4.8086,74.5068
4.4280,74.4567
4.4194,74.4552
4.0447,74.3721
4.0363,74.3699
3.6702,74.2544
3.6621,74.2515
3.3074,74.1046
3.2996,74.1009
2.9591,73.9237
2.9516,73.9194
2.6278,73.7131
2.6208,73.7081
2.3162,73.4744
2.3096,73.4689
2.0265,73.2095
2.0205,73.2035
1.7611,72.9204
1.7556,72.9138
1.5219,72.6092
1.5169,72.6022
1.3106,72.2784
1.3087,72.2750
32.8248,72.2750
32.8436,72.5022
32.8436,72.5022
32.8996,72.7232
32.9911,72.9319
33.1158,73.1227
33.2702,73.2905
33.4501,73.4305
33.6506,73.5390
33.8662,73.6130
34.0910,73.6505
34.3190,73.6505
34.5438,73.6130
34.7594,73.5390
34.9599,73.4305
35.1398,73.2905
35.2942,73.1227
35.4189,72.9319
35.5104,72.7232
35.5664,72.5022
35.5852,72.2750
35.5664,72.0478
35.5104,71.8268
35.4189,71.6181
35.2942,71.4273
35.1398,71.2595
34.9599,71.1195
34.7594,71.0110
34.5438,70.9370
34.3190,70.8995
34.0910,70.8995
33.8662,70.9370
33.6506,71.0110
33.4501,71.1195
33.4501,71.1195
33.2702,71.2595
33.1158,71.4273
32.9911,71.6181
32.8996,71.8268
32.8436,72.0478
32.8248,72.2750
1.3087,72.2750
1.3063,72.2709
1.1291,71.9304
1.1254,71.9226
1.0858,71.8268
0.9785,71.5679
0.9756,71.5598
0.8601,71.1937
0.8579,71.1853
0.8433,71.1195
0.7748,70.8105
0.7733,70.8020
0.7606,70.7060
0.7232,70.4214
0.7224,70.4129
0.7056,70.0272
0.7055,70.0228
0.7055,67.5250
17.8998,67.5250
17.8998,67.5250
17.9187,67.6687
17.9187,67.6687
17.9358,67.7102
17.9741,67.8026
18.0624,67.9176
18.1774,68.0059
18.3113,68.0613
18.3277,68.0635
18.3830,68.0898
18.4122,68.1436
18.4130,68.1746
18.3998,68.2750
18.3998,68.2750
18.4187,68.4187
18.4187,68.4187
18.4741,68.5526
18.5624,68.6676
18.6774,68.7559
18.8113,68.8113
18.9550,68.8302
19.0987,68.8113
19.2326,68.7559
19.3476,68.6676
19.4359,68.5526
19.4913,68.4187
19.5102,68.2750
19.4913,68.1313
19.4359,67.9974
19.3476,67.8824
19.2326,67.7941
19.2326,67.7941
19.0987,67.7387
19.0987,67.7387
19.0823,67.7365
19.0270,67.7102
18.9978,67.6564
18.9970,67.6254
19.0102,67.5250
18.9913,67.3813
18.9359,67.2474
18.8476,67.1324
18.7326,67.0441
18.7326,67.0441
18.5987,66.9887
18.5987,66.9887
18.4550,66.9697
18.3113,66.9887
18.3113,66.9887
18.1774,67.0441
18.1774,67.0441
18.0624,67.1324
18.0624,67.1324
17.9741,67.2474
17.9741,67.2474
17.9187,67.3813
17.9187,67.3813
17.8998,67.5250
0.7055,67.5250
0.7055,64.7750
6.3998,64.7750
6.3998,64.7750
6.4187,64.9187
6.4187,64.9187
6.4741,65.0526
6.5624,65.1676
6.6774,65.2559
6.8113,65.3113
6.9550,65.3302
7.0987,65.3113
7.2326,65.2559
7.3476,65.1676
7.4359,65.0526
7.4913,64.9187
7.5103,64.7750
7.4913,64.6313
7.4889,64.6253
8.3295,64.6253
8.3295,66.9247
8.3295,66.9247
8.3440,66.9977
8.3440,66.9977
8.3994,67.0806
8.3994,67.0806
8.4823,67.1360
8.5378,67.1470
8.5553,67.1505
8.5553,67.1505
8.5553,67.1505
8.5553,67.1505
10.8547,67.1505
10.8547,67.1505
10.9277,67.1360
11.0106,67.0806
11.0660,66.9977
11.0805,66.9247
11.0805,64.6253
12.8295,64.6253
12.8295,66.9247
12.8295,66.9247
12.8440,66.9977
12.8440,66.9977
12.8994,67.0806
12.8994,67.0806
12.9823,67.1360
13.0378,67.1470
13.0553,67.1505
13.0553,67.1505
13.0553,67.1505
13.0553,67.1505
15.3547,67.1505
15.3547,67.1505
15.4277,67.1360
15.5106,67.0806
15.5660,66.9977
15.5805,66.9247
15.5805,64.6253
32.8295,64.6253
32.8295,66.9247
32.8295,66.9247
32.8440,66.9977
32.8440,66.9977
32.8994,67.0806
32.8994,67.0806
32.9823,67.1360
33.0378,67.1470
33.0553,67.1505
33.0553,67.1505
33.0553,67.1505
33.0553,67.1505
35.3547,67.1505
35.3547,67.1505
35.4277,67.1360
35.5106,67.0806
35.5660,66.9977
35.5805,66.9247
35.5805,64.6253
35.5660,64.5523
35.5106,64.4694
35.5106,64.4694
35.4277,64.4140
35.4277,64.4140
35.4277,64.4140
35.4277,64.4140
35.3547,64.3995
35.3547,64.3995
33.0553,64.3995
33.0553,64.3995
33.0553,64.3995
32.9823,64.4140
32.9823,64.4140
32.8994,64.4694
32.8994,64.4694
32.8440,64.5523
32.8440,64.5523
32.8295,64.6253
32.8295,64.6253
15.5805,64.6253
15.5805,64.6253
15.5660,64.5523
15.5106,64.4694
15.5106,64.4694
15.4277,64.4140
15.4277,64.4140
15.4277,64.4140
15.4277,64.4140
15.3547,64.3995
15.3547,64.3995
13.0553,64.3995
13.0553,64.3995
13.0553,64.3995
12.9823,64.4140
12.9823,64.4140
12.8994,64.4694
12.8994,64.4694
12.8440,64.5523
12.8440,64.5523
12.8295,64.6253
12.8295,64.6253
11.0805,64.6253
11.0805,64.6253
11.0660,64.5523
11.0106,64.4694
11.0106,64.4694
10.9277,64.4140
10.9277,64.4140
10.9277,64.4140
10.9277,64.4140
10.8547,64.3995
10.8547,64.3995
8.5553,64.3995
8.5553,64.3995
8.5553,64.3995
8.4823,64.4140
8.4823,64.4140
8.3994,64.4694
8.3994,64.4694
8.3440,64.5523
8.3440,64.5523
8.3295,64.6253
8.3295,64.6253
7.4889,64.6253
7.4359,64.4974
7.3476,64.3824
7.2326,64.2941
7.2326,64.2941
7.0987,64.2387
7.0987,64.2387
6.9550,64.2197
6.8113,64.2387
6.8113,64.2387
6.6774,64.2941
6.6774,64.2941
6.5624,64.3824
6.5624,64.3824
6.4741,64.4974
6.4741,64.4974
6.4187,64.6313
6.4187,64.6313
6.3998,64.7750
0.7055,64.7750
0.7055,62.5250
25.8997,62.5250
25.8997,62.5250
25.9187,62.6687
25.9187,62.6687
25.9513,62.7474
25.9741,62.8026
26.0624,62.9176
26.1774,63.0059
26.3113,63.0613
26.4550,63.0802
26.5554,63.0670
26.6156,63.0782
26.6577,63.1226
26.6665,63.1523
26.6687,63.1687
26.7241,63.3026
26.8124,63.4176
26.9274,63.5059
27.0613,63.5613
27.2050,63.5802
27.3487,63.5613
27.4826,63.5059
27.5976,63.4176
27.6859,63.3026
27.7413,63.1687
27.7602,63.0250
27.7577,63.0059
27.7413,62.8813
27.6859,62.7474
27.5976,62.6324
27.4826,62.5441
27.4826,62.5441
27.3487,62.4887
27.3487,62.4887
27.2050,62.4697
27.2050,62.4697
27.1046,62.4830
27.0444,62.4718
27.0023,62.4274
26.9935,62.3977
26.9913,62.3813
26.9913,62.3813
26.9359,62.2474
26.8476,62.1324
26.7326,62.0441
26.7326,62.0441
26.5987,61.9887
26.5987,61.9887
26.4550,61.9697
26.3113,61.9887
26.3113,61.9887
26.1774,62.0441
26.1774,62.0441
26.0624,62.1324
26.0624,62.1324
25.9741,62.2474
25.9741,62.2474
25.9187,62.3813
25.9187,62.3813
25.8997,62.5250
0.7055,62.5250
0.7055,60.8750
14.4997,60.8750
14.4997,60.8750
14.5187,61.0187
14.5187,61.0187
14.5741,61.1526
14.6624,61.2676
14.7774,61.3559
14.9113,61.4113
15.0550,61.4302
15.1987,61.4113
15.3326,61.3559
15.4476,61.2676
15.5359,61.1526
15.5887,61.0250
23.1497,61.0250
23.1497,61.0250
23.1687,61.1687
23.1687,61.1687
23.2241,61.3026
23.3124,61.4176
23.4274,61.5059
23.5613,61.5613
23.7050,61.5802
23.8487,61.5613
23.9826,61.5059
24.0976,61.4176
24.1859,61.3026
24.2413,61.1687
24.2602,61.0250
24.2413,60.8813
24.1859,60.7474
24.0976,60.6324
23.9826,60.5441
23.9826,60.5441
23.8487,60.4887
23.8487,60.4887
23.7050,60.4697
23.5613,60.4887
23.5613,60.4887
23.4274,60.5441
23.4274,60.5441
23.3124,60.6324
23.3124,60.6324
23.2241,60.7474
23.2241,60.7474
23.1687,60.8813
23.1687,60.8813
23.1497,61.0250
15.5887,61.0250
15.5913,61.0187
15.6102,60.8750
15.5913,60.7313
15.5359,60.5974
15.4476,60.4824
15.3326,60.3941
15.3326,60.3941
15.1987,60.3387
15.1987,60.3387
15.0550,60.3197
14.9113,60.3387
14.9113,60.3387
14.7774,60.3941
14.7774,60.3941
14.6624,60.4824
14.6624,60.4824
14.5741,60.5974
14.5741,60.5974
14.5187,60.7313
14.5187,60.7313
14.4997,60.8750
0.7055,60.8750
0.7055,56.3250
20.2497,56.3250
20.2497,56.3250
20.2687,56.4687
20.2687,56.4687
20.3241,56.6026
20.4124,56.7176
20.5274,56.8059
20.6613,56.8613
20.8050,56.8802
20.9487,56.8613
21.0826,56.8059
21.1976,56.7176
21.2859,56.6026
21.3413,56.4687
21.3603,56.3250
21.3413,56.1813
21.2859,56.0474
21.1976,55.9324
21.0826,55.8441
21.0826,55.8441
20.9487,55.7887
20.9487,55.7887
20.8050,55.7697
20.6613,55.7887
20.6613,55.7887
20.5274,55.8441
20.5274,55.8441
20.4124,55.9324
20.4124,55.9324
20.3241,56.0474
20.3241,56.0474
20.2687,56.1813
20.2687,56.1813
20.2497,56.3250
0.7055,56.3250
0.7055,54.8250
24.0497,54.8250
24.0497,54.8250
24.0687,54.9687
24.0687,54.9687
24.1241,55.1026
24.2124,55.2176
24.3274,55.3059
24.4613,55.3613
24.6050,55.3802
24.7487,55.3613
24.8826,55.3059
24.9976,55.2176
25.0859,55.1026
25.1413,54.9687
25.1602,54.8250
25.1413,54.6813
25.0859,54.5474
24.9976,54.4324
24.8826,54.3441
24.8826,54.3441
24.7487,54.2887
24.7487,54.2887
24.6050,54.2697
24.4613,54.2887
24.4613,54.2887
24.3274,54.3441
24.3274,54.3441
24.2124,54.4324
24.2124,54.4324
24.1241,54.5474
24.1241,54.5474
24.0687,54.6813
24.0687,54.6813
24.0497,54.8250
0.7055,54.8250
0.7055,52.1250
19.6497,52.1250
19.6497,52.1250
19.6687,52.2687
19.6687,52.2687
19.7241,52.4026
19.8124,52.5176
19.9274,52.6059
20.0613,52.6613
20.2050,52.6803
20.3487,52.6613
20.4826,52.6059
20.5976,52.5176
20.6859,52.4026
20.7413,52.2687
20.7602,52.1250
20.7413,51.9813
20.6859,51.8474
20.5976,51.7324
20.4826,51.6441
20.4826,51.6441
20.3487,51.5887
20.3487,51.5887
20.2050,51.5697
20.0613,51.5887
20.0613,51.5887
19.9274,51.6441
19.9274,51.6441
19.8124,51.7324
19.8124,51.7324
19.7241,51.8474
19.7241,51.8474
19.6687,51.9813
19.6687,51.9813
19.6497,52.1250
0.7055,52.1250
0.7055,49.2750
5.6498,49.2750
5.6498,49.2750
5.6687,49.4187
5.6687,49.4187
5.7034,49.5026
5.7241,49.5526
5.8124,49.6676
5.9274,49.7559
6.0613,49.8113
6.2050,49.8302
6.3487,49.8113
6.4826,49.7559
6.5976,49.6676
6.6859,49.5526
6.7413,49.4187
6.7603,49.2750
6.7546,49.2324
6.7413,49.1313
6.6859,48.9974
6.6303,48.9250
9.4497,48.9250
9.4497,48.9250
9.4687,49.0687
9.4687,49.0687
9.5127,49.1750
9.5241,49.2026
9.6124,49.3176
9.7274,49.4059
9.8613,49.4613
10.0050,49.4802
10.1487,49.4613
10.2826,49.4059
10.3976,49.3176
10.4859,49.2026
10.5413,49.0687
10.5602,48.9250
10.5602,48.9250
12.9497,48.9250
12.9497,48.9250
12.9687,49.0687
12.9687,49.0687
13.0127,49.1750
13.0241,49.2026
13.1124,49.3176
13.2274,49.4059
13.3613,49.4613
13.5050,49.4802
13.6487,49.4613
13.7826,49.4059
13.8976,49.3176
13.9687,49.2250
17.5497,49.2250
17.5497,49.2250
17.5687,49.3687
17.5687,49.3687
17.5932,49.4279
17.6241,49.5026
17.7124,49.6176
17.8274,49.7059
17.9613,49.7613
18.1050,49.7802
18.2487,49.7613
18.3826,49.7059
18.4976,49.6176
18.5859,49.5026
18.6413,49.3687
18.6602,49.2250
18.6537,49.1750
18.8872,49.1750
18.8872,49.1750
18.9062,49.3068
18.9062,49.3068
18.9062,49.3068
18.9062,49.3068
18.9615,49.4279
19.0487,49.5285
19.0533,49.5339
19.0512,49.5357
19.0764,49.5776
19.0712,49.6385
19.0520,49.6650
19.0533,49.6661
18.9615,49.7721
18.9062,49.8932
18.9062,49.8932
18.8872,50.0250
18.8872,50.0250
18.9062,50.1568
18.9062,50.1568
18.9062,50.1568
18.9062,50.1568
18.9615,50.2779
19.0487,50.3785
19.0533,50.3839
19.0512,50.3857
19.0764,50.4276
19.0712,50.4885
19.0520,50.5150
19.0533,50.5161
18.9615,50.6221
18.9062,50.7432
18.9062,50.7432
18.8872,50.8750
18.8872,50.8750
18.9062,51.0068
18.9062,51.0068
18.9062,51.0068
18.9062,51.0068
18.9615,51.1279
18.9820,51.1515
19.0487,51.2285
19.1607,51.3005
19.1607,51.3005
19.2884,51.3380
19.2884,51.3380
19.4216,51.3380
19.4216,51.3380
19.5493,51.3005
19.6613,51.2285
19.7052,51.1779
19.7576,51.1463
19.8185,51.1515
19.8548,51.1779
19.8987,51.2285
19.8987,51.2285
20.0107,51.3005
20.0107,51.3005
20.1384,51.3380
20.1384,51.3380
20.2716,51.3380
20.2716,51.3380
20.3993,51.3005
20.5113,51.2285
20.5552,51.1779
20.6076,51.1463
20.6685,51.1515
20.7048,51.1779
20.7487,51.2285
20.7487,51.2285
20.8607,51.3005
20.8607,51.3005
20.9884,51.3380
20.9884,51.3380
21.1216,51.3380
21.1216,51.3380
21.2493,51.3005
21.3613,51.2285
21.4485,51.1279
21.5038,51.0068
21.5228,50.8750
21.5038,50.7432
21.4485,50.6221
21.3613,50.5215
21.3613,50.5215
21.3567,50.5161
21.3588,50.5143
21.3336,50.4724
21.3388,50.4115
21.3580,50.3850
21.3567,50.3839
21.3613,50.3785
21.4485,50.2779
21.5038,50.1568
21.5228,50.0250
21.5217,50.0176
21.5038,49.8932
21.5038,49.8932
21.5038,49.8932
21.4485,49.7721
21.3613,49.6715
21.3613,49.6715
21.3567,49.6661
21.3588,49.6643
21.3351,49.6250
21.7497,49.6250
21.7497,49.6250
21.7687,49.7687
21.7687,49.7687
21.8202,49.8932
21.8241,49.9026
21.9124,50.0176
22.0274,50.1059
22.1613,50.1613
22.3050,50.1803
22.4487,50.1613
22.5826,50.1059
22.6976,50.0176
22.7859,49.9026
22.8413,49.7687
22.8603,49.6250
22.8603,49.6250
26.2497,49.6250
26.2497,49.6250
26.2687,49.7687
26.2687,49.7687
26.3202,49.8932
26.3241,49.9026
26.4124,50.0176
26.5274,50.1059
26.6613,50.1613
26.8050,50.1803
26.9487,50.1613
27.0826,50.1059
27.1976,50.0176
27.2859,49.9026
27.3413,49.7687
27.3602,49.6250
27.3507,49.5526
27.3413,49.4813
27.2859,49.3474
27.1976,49.2324
27.0826,49.1441
27.0826,49.1441
26.9487,49.0887
26.9487,49.0887
26.8050,49.0697
26.6613,49.0887
26.6613,49.0887
26.5274,49.1441
26.5274,49.1441
26.4124,49.2324
26.4124,49.2324
26.3241,49.3474
26.3241,49.3474
26.2687,49.4813
26.2687,49.4813
26.2497,49.6250
22.8603,49.6250
22.8507,49.5526
22.8413,49.4813
22.7859,49.3474
22.6976,49.2324
22.5826,49.1441
22.5826,49.1441
22.4487,49.0887
22.4487,49.0887
22.3050,49.0697
22.1613,49.0887
22.1613,49.0887
22.0274,49.1441
22.0274,49.1441
21.9124,49.2324
21.9124,49.2324
21.8241,49.3474
21.8241,49.3474
21.7687,49.4813
21.7687,49.4813
21.7497,49.6250
21.3351,49.6250
21.3336,49.6224
21.3388,49.5615
21.3580,49.5350
21.3567,49.5339
21.3613,49.5285
21.4485,49.4279
21.5038,49.3068
21.5145,49.2324
21.5228,49.1750
21.5228,49.1750
21.5038,49.0432
21.5038,49.0432
21.5038,49.0432
21.4485,48.9221
21.3613,48.8215
21.3613,48.8215
21.3613,48.8215
21.2493,48.7495
21.1216,48.7120
21.1216,48.7120
20.9884,48.7120
20.9884,48.7120
20.8607,48.7495
20.7487,48.8215
20.7048,48.8721
20.6524,48.9037
20.5915,48.8985
20.5552,48.8721
20.5113,48.8215
20.3993,48.7495
20.2716,48.7120
20.2716,48.7120
20.1384,48.7120
20.1384,48.7120
20.0107,48.7495
19.8987,48.8215
19.8548,48.8721
19.8024,48.9037
19.7415,48.8985
19.7052,48.8721
19.6613,48.8215
19.5493,48.7495
19.4216,48.7120
19.4216,48.7120
19.2884,48.7120
19.2884,48.7120
19.1607,48.7495
19.0487,48.8215
18.9615,48.9221
18.9062,49.0432
18.9062,49.0432
18.8872,49.1750
18.6537,49.1750
18.6413,49.0813
18.5859,48.9474
18.4976,48.8324
18.3826,48.7441
18.3826,48.7441
18.2487,48.6887
18.2487,48.6887
18.1050,48.6698
17.9613,48.6887
17.9613,48.6887
17.8274,48.7441
17.8274,48.7441
17.7124,48.8324
17.7124,48.8324
17.6241,48.9474
17.6241,48.9474
17.5687,49.0813
17.5687,49.0813
17.5497,49.2250
13.9687,49.2250
13.9859,49.2026
14.0413,49.0687
14.0602,48.9250
14.0599,48.9221
14.0413,48.7813
13.9859,48.6474
13.8976,48.5324
13.7826,48.4441
13.7826,48.4441
13.6487,48.3887
13.6487,48.3887
13.5050,48.3697
13.3613,48.3887
13.3613,48.3887
13.2274,48.4441
13.2274,48.4441
13.1124,48.5324
13.1124,48.5324
13.0241,48.6474
13.0241,48.6474
12.9687,48.7813
12.9687,48.7813
12.9497,48.9250
10.5602,48.9250
10.5599,48.9221
10.5413,48.7813
10.4859,48.6474
10.3976,48.5324
10.2826,48.4441
10.2826,48.4441
10.1487,48.3887
10.1487,48.3887
10.0050,48.3697
9.8613,48.3887
9.8613,48.3887
9.7274,48.4441
9.7274,48.4441
9.6124,48.5324
9.6124,48.5324
9.5241,48.6474
9.5241,48.6474
9.4687,48.7813
9.4687,48.7813
9.4497,48.9250
6.6303,48.9250
6.5976,48.8824
6.4826,48.7941
6.4826,48.7941
6.3487,48.7387
6.3487,48.7387
6.2050,48.7197
6.0613,48.7387
6.0613,48.7387
5.9274,48.7941
5.9274,48.7941
5.8124,48.8824
5.8124,48.8824
5.7241,48.9974
5.7241,48.9974
5.6687,49.1313
5.6687,49.1313
5.6498,49.2750
0.7055,49.2750
0.7055,48.0250
6.3998,48.0250
6.3998,48.0250
6.4187,48.1687
6.4187,48.1687
6.4548,48.2559
6.4741,48.3026
6.5624,48.4176
6.6774,48.5059
6.8113,48.5613
6.9550,48.5802
7.0987,48.5613
7.2326,48.5059
7.3476,48.4176
7.4359,48.3026
7.4913,48.1687
7.5103,48.0250
7.4913,47.8813
7.4473,47.7750
8.6497,47.7750
8.6497,47.7750
8.6687,47.9187
8.6687,47.9187
8.7127,48.0250
8.7241,48.0526
8.8124,48.1676
8.9274,48.2559
9.0613,48.3113
9.2050,48.3302
9.3487,48.3113
9.4826,48.2559
9.5976,48.1676
9.6859,48.0526
9.7387,47.9250
20.2497,47.9250
20.2497,47.9250
20.2687,48.0687
20.2687,48.0687
20.3101,48.1687
20.3241,48.2026
20.4124,48.3176
20.5274,48.4059
20.6613,48.4613
20.8050,48.4802
20.9487,48.4613
21.0826,48.4059
21.1976,48.3176
21.2859,48.2026
21.3413,48.0687
21.3603,47.9250
21.3573,47.9026
21.3413,47.7813
21.2859,47.6474
21.2687,47.6250
22.0497,47.6250
22.0497,47.6250
22.0687,47.7687
22.0687,47.7687
22.1241,47.9026
22.2124,48.0176
22.3274,48.1059
22.4613,48.1613
22.6050,48.1803
22.7487,48.1613
22.8826,48.1059
22.9976,48.0176
23.0859,47.9026
23.1413,47.7687
23.1602,47.6250
23.1481,47.5324
23.1413,47.4813
23.0859,47.3474
22.9976,47.2324
22.8826,47.1441
22.8826,47.1441
22.7487,47.0887
22.7487,47.0887
22.6050,47.0697
22.4613,47.0887
22.4613,47.0887
22.3274,47.1441
22.3274,47.1441
22.2124,47.2324
22.2124,47.2324
22.1241,47.3474
22.1241,47.3474
22.0687,47.4813
22.0687,47.4813
22.0497,47.6250
21.2687,47.6250
21.1976,47.5324
21.0826,47.4441
21.0826,47.4441
20.9487,47.3887
20.9487,47.3887
20.8050,47.3697
20.6613,47.3887
20.6613,47.3887
20.5274,47.4441
20.5274,47.4441
20.4124,47.5324
20.4124,47.5324
20.3241,47.6474
20.3241,47.6474
20.2687,47.7813
20.2687,47.7813
20.2497,47.9250
9.7387,47.9250
9.7413,47.9187
9.7602,47.7750
9.7566,47.7474
9.7413,47.6313
9.6859,47.4974
9.5976,47.3824
9.4826,47.2941
9.4826,47.2941
9.3487,47.2387
9.3487,47.2387
9.2050,47.2197
9.0613,47.2387
9.0613,47.2387
8.9274,47.2941
8.9274,47.2941
8.8124,47.3824
8.8124,47.3824
8.7241,47.4974
8.7241,47.4974
8.6687,47.6313
8.6687,47.6313
8.6497,47.7750
7.4473,47.7750
7.4359,47.7474
7.3476,47.6324
7.2326,47.5441
7.2326,47.5441
7.0987,47.4887
7.0987,47.4887
6.9550,47.4697
6.8113,47.4887
6.8113,47.4887
6.6774,47.5441
6.6774,47.5441
6.5624,47.6324
6.5624,47.6324
6.4741,47.7474
6.4741,47.7474
6.4187,47.8813
6.4187,47.8813
6.3998,48.0250
0.7055,48.0250
0.7055,46.0250
9.3997,46.0250
9.3997,46.0250
9.4187,46.1687
9.4187,46.1687
9.4548,46.2559
9.4741,46.3026
9.5624,46.4176
9.6774,46.5059
9.8113,46.5613
9.9550,46.5802
10.0987,46.5613
10.2326,46.5059
10.3476,46.4176
10.4359,46.3026
10.4913,46.1687
10.5102,46.0250
10.5102,46.0250
11.3997,46.0250
11.3997,46.0250
11.4187,46.1687
11.4187,46.1687
11.4548,46.2559
11.4741,46.3026
11.5624,46.4176
11.6774,46.5059
11.8113,46.5613
11.9550,46.5802
12.0987,46.5613
12.2326,46.5059
12.3476,46.4176
12.4359,46.3026
12.4913,46.1687
12.5102,46.0250
12.5077,46.0059
12.4913,45.8813
12.4359,45.7474
12.3476,45.6324
12.2326,45.5441
12.2326,45.5441
12.1864,45.5250
24.1497,45.5250
24.1497,45.5250
24.1687,45.6687
24.1687,45.6687
24.2127,45.7750
24.2241,45.8026
24.3124,45.9176
24.4274,46.0059
24.5613,46.0613
24.7050,46.0802
24.8487,46.0613
24.9826,46.0059
25.0976,45.9176
25.1859,45.8026
25.1973,45.7750
30.2997,45.7750
30.2997,45.7750
30.3187,45.9187
30.3187,45.9187
30.3627,46.0250
30.3741,46.0526
30.4624,46.1676
30.5774,46.2559
30.7113,46.3113
30.7683,46.3188
30.8236,46.3452
30.8528,46.3990
30.8536,46.4041
30.8670,46.5059
30.8687,46.5187
30.8687,46.5187
30.8863,46.5613
30.9241,46.6526
31.0124,46.7676
31.1274,46.8559
31.2613,46.9113
31.4050,46.9303
31.5487,46.9113
31.6826,46.8559
31.7976,46.7676
31.8859,46.6526
31.9413,46.5187
31.9602,46.3750
31.9544,46.3302
31.9413,46.2313
31.8859,46.0974
31.7976,45.9824
31.6826,45.8941
31.6826,45.8941
31.6219,45.8690
31.5487,45.8387
31.5233,45.8353
31.4917,45.8312
31.4364,45.8048
31.4072,45.7510
31.4064,45.7459
31.3913,45.6313
31.3359,45.4974
31.2476,45.3824
31.1326,45.2941
31.1326,45.2941
30.9987,45.2387
30.9987,45.2387
30.8550,45.2197
30.7113,45.2387
30.7113,45.2387
30.5774,45.2941
30.5774,45.2941
30.4624,45.3824
30.4624,45.3824
30.3741,45.4974
30.3741,45.4974
30.3187,45.6313
30.3187,45.6313
30.2997,45.7750
25.1973,45.7750
25.2413,45.6687
25.2602,45.5250
25.2566,45.4974
25.2413,45.3813
25.1859,45.2474
25.0976,45.1324
24.9826,45.0441
24.9826,45.0441
24.8487,44.9887
24.8487,44.9887
24.7050,44.9697
24.5613,44.9887
24.5613,44.9887
24.4274,45.0441
24.4274,45.0441
24.3124,45.1324
24.3124,45.1324
24.2241,45.2474
24.2241,45.2474
24.1687,45.3813
24.1687,45.3813
24.1497,45.5250
12.1864,45.5250
12.0987,45.4887
12.0987,45.4887
11.9550,45.4697
11.8113,45.4887
11.8113,45.4887
11.6774,45.5441
11.6774,45.5441
11.5624,45.6324
11.5624,45.6324
11.4741,45.7474
11.4741,45.7474
11.4187,45.8813
11.4187,45.8813
11.3997,46.0250
10.5102,46.0250
10.5077,46.0059
10.4913,45.8813
10.4359,45.7474
10.3476,45.6324
10.2326,45.5441
10.2326,45.5441
10.0987,45.4887
10.0987,45.4887
9.9550,45.4697
9.8113,45.4887
9.8113,45.4887
9.6774,45.5441
9.6774,45.5441
9.5624,45.6324
9.5624,45.6324
9.4741,45.7474
9.4741,45.7474
9.4187,45.8813
9.4187,45.8813
9.3997,46.0250
0.7055,46.0250
0.7055,41.0250
12.0497,41.0250
12.0497,41.0250
12.0687,41.1687
12.0687,41.1687
12.1013,41.2474
12.1241,41.3026
12.2124,41.4176
12.3274,41.5059
12.4613,41.5613
12.6050,41.5802
12.7487,41.5613
12.8364,41.5250
20.2497,41.5250
20.2497,41.5250
20.2687,41.6687
20.2687,41.6687
20.3241,41.8026
20.3241,41.8026
20.3718,41.8647
20.3922,41.9224
20.3748,41.9811
20.3718,41.9853
20.3241,42.0474
20.3241,42.0474
20.2687,42.1813
20.2687,42.1813
20.2497,42.3250
20.2497,42.3250
20.2687,42.4687
20.2687,42.4687
20.3241,42.6026
20.4124,42.7176
20.5274,42.8059
20.6613,42.8613
20.8050,42.8802
20.9487,42.8613
21.0826,42.8059
21.1976,42.7176
21.2859,42.6026
21.3413,42.4687
21.3603,42.3250
21.3413,42.1813
21.2859,42.0474
21.2859,42.0474
21.2859,42.0474
21.2382,41.9853
21.2178,41.9276
21.2352,41.8689
21.2382,41.8647
21.2859,41.8026
21.2859,41.8026
21.2859,41.8026
21.3413,41.6687
21.3603,41.5250
21.3577,41.5059
21.3413,41.3813
21.2859,41.2474
21.1976,41.1324
21.0826,41.0441
21.0826,41.0441
20.9487,40.9887
20.9487,40.9887
20.8050,40.9697
20.6613,40.9887
20.6613,40.9887
20.5274,41.0441
20.5274,41.0441
20.4124,41.1324
20.4124,41.1324
20.3241,41.2474
20.3241,41.2474
20.2687,41.3813
20.2687,41.3813
20.2497,41.5250
12.8364,41.5250
12.8826,41.5059
12.9976,41.4176
13.0859,41.3026
13.1413,41.1687
13.1602,41.0250
13.1413,40.8813
13.0859,40.7474
12.9976,40.6324
12.8826,40.5441
12.8826,40.5441
12.7487,40.4887
12.7487,40.4887
12.6050,40.4697
12.4613,40.4887
12.4613,40.4887
12.3274,40.5441
12.3274,40.5441
12.2124,40.6324
12.2124,40.6324
12.1241,40.7474
12.1241,40.7474
12.0687,40.8813
12.0687,40.8813
12.0497,41.0250
0.7055,41.0250
0.7055,31.8392
6.2345,31.8392
6.2345,31.9908
6.2691,32.1198
6.2737,32.1371
6.3495,32.2684
6.3495,32.2684
6.3495,32.2684
6.4566,32.3755
6.4566,32.3755
6.4566,32.3755
6.5879,32.4513
6.5879,32.4513
6.5879,32.4513
6.5879,32.4513
6.7342,32.4905
6.7342,32.4905
6.8858,32.4905
6.8858,32.4905
7.0321,32.4513
7.0321,32.4513
7.0321,32.4513
7.1634,32.3755
7.1634,32.3755
7.1634,32.3755
7.2705,32.2684
7.3463,32.1371
7.3855,31.9908
7.3855,31.8392
7.3463,31.6929
7.3463,31.6929
7.3463,31.6929
7.2705,31.5616
7.2705,31.5616
7.2705,31.5616
7.1634,31.4545
7.1634,31.4545
7.1634,31.4545
7.1123,31.4250
9.7497,31.4250
9.7497,31.4250
9.7687,31.5687
9.7687,31.5687
9.8241,31.7026
9.9124,31.8176
10.0274,31.9059
10.1613,31.9613
10.3050,31.9802
10.4487,31.9613
10.5826,31.9059
10.6947,31.8198
10.7524,31.7994
10.8111,31.8168
10.8152,31.8198
10.9274,31.9059
11.0613,31.9613
11.2050,31.9802
11.3487,31.9613
11.4826,31.9059
11.5976,31.8176
11.6859,31.7026
11.7413,31.5687
11.7602,31.4250
11.7413,31.2813
11.6859,31.1474
11.5976,31.0324
11.4826,30.9441
11.4826,30.9441
11.3487,30.8887
11.3487,30.8887
11.2050,30.8697
11.0613,30.8887
11.0613,30.8887
10.9274,30.9441
10.9274,30.9441
10.8153,31.0302
10.7576,31.0506
10.6989,31.0332
10.6947,31.0302
10.5826,30.9441
10.5826,30.9441
10.5826,30.9441
10.5826,30.9441
10.5826,30.9441
10.4487,30.8887
10.4487,30.8887
10.3050,30.8697
10.1613,30.8887
10.1613,30.8887
10.0274,30.9441
10.0274,30.9441
9.9124,31.0324
9.9124,31.0324
9.8241,31.1474
9.8241,31.1474
9.7687,31.2813
9.7687,31.2813
9.7497,31.4250
7.1123,31.4250
7.0321,31.3787
7.0321,31.3787
6.9753,31.3635
6.8858,31.3395
6.7342,31.3395
6.6447,31.3635
6.5879,31.3787
6.4566,31.4545
6.3495,31.5616
6.2737,31.6929
6.2518,31.7747
6.2345,31.8392
0.7055,31.8392
0.7055,26.0592
6.2345,26.0592
6.2345,26.2108
6.2403,26.2324
6.2737,26.3571
6.3495,26.4884
6.3495,26.4884
6.3495,26.4884
6.4566,26.5955
6.4566,26.5955
6.4566,26.5955
6.5879,26.6713
6.5879,26.6713
6.5879,26.6713
6.5879,26.6713
6.7342,26.7105
6.7342,26.7105
6.8858,26.7105
6.8858,26.7105
7.0321,26.6713
7.0321,26.6713
7.0321,26.6713
7.1123,26.6250
9.7497,26.6250
9.7497,26.6250
9.7687,26.7687
9.7687,26.7687
9.8241,26.9026
9.9124,27.0176
10.0274,27.1059
10.1613,27.1613
10.3050,27.1802
10.4487,27.1613
10.5826,27.1059
10.6947,27.0198
10.7524,26.9994
10.8111,27.0168
10.8152,27.0198
10.9274,27.1059
11.0613,27.1613
11.2050,27.1802
11.3487,27.1613
11.4826,27.1059
11.5976,27.0176
11.6859,26.9026
11.7413,26.7687
11.7602,26.6250
11.7413,26.4813
11.6859,26.3474
11.5976,26.2324
11.4826,26.1441
11.4826,26.1441
11.3487,26.0887
11.3487,26.0887
11.2050,26.0697
11.0613,26.0887
11.0613,26.0887
10.9274,26.1441
10.9274,26.1441
10.8153,26.2302
10.7576,26.2506
10.6989,26.2332
10.6947,26.2302
10.5826,26.1441
10.5826,26.1441
10.5826,26.1441
10.5826,26.1441
10.5826,26.1441
10.4487,26.0887
10.4487,26.0887
10.3050,26.0697
10.1613,26.0887
10.1613,26.0887
10.0274,26.1441
10.0274,26.1441
9.9124,26.2324
9.9124,26.2324
9.8241,26.3474
9.8241,26.3474
9.7687,26.4813
9.7687,26.4813
9.7497,26.6250
7.1123,26.6250
7.1634,26.5955
7.1634,26.5955
7.1634,26.5955
7.2705,26.4884
7.3463,26.3571
7.3855,26.2108
7.3855,26.0592
7.3463,25.9129
7.3463,25.9129
7.3463,25.9129
7.2705,25.7816
7.2705,25.7816
7.2705,25.7816
7.1634,25.6745
7.1634,25.6745
7.1634,25.6745
7.0321,25.5987
7.0321,25.5987
6.9753,25.5835
6.8858,25.5595
6.7342,25.5595
6.6447,25.5835
6.5879,25.5987
6.4566,25.6745
6.3495,25.7816
6.2737,25.9129
6.2737,25.9129
6.2345,26.0592
0.7055,26.0592
0.7055,24.5250
35.3997,24.5250
35.3997,24.5250
35.4187,24.6687
35.4187,24.6687
35.4741,24.8026
35.5624,24.9176
35.6774,25.0059
35.8113,25.0613
35.9550,25.0802
36.0987,25.0613
36.2326,25.0059
36.3476,24.9176
36.4359,24.8026
36.4913,24.6687
36.5102,24.5250
36.4913,24.3813
36.4359,24.2474
36.3476,24.1324
36.2326,24.0441
36.2326,24.0441
36.0987,23.9887
36.0987,23.9887
35.9550,23.9697
35.8113,23.9887
35.8113,23.9887
35.6774,24.0441
35.6774,24.0441
35.5624,24.1324
35.5624,24.1324
35.4741,24.2474
35.4741,24.2474
35.4187,24.3813
35.4187,24.3813
35.3997,24.5250
0.7055,24.5250
0.7055,22.6750
11.4997,22.6750
11.4997,22.6750
11.5187,22.8187
11.5187,22.8187
11.5446,22.8813
11.5741,22.9526
11.6624,23.0676
11.7774,23.1559
11.9113,23.2113
12.0550,23.2302
12.1987,23.2113
12.3326,23.1559
12.4476,23.0676
12.4803,23.0250
33.3997,23.0250
33.3997,23.0250
33.4187,23.1687
33.4187,23.1687
33.4363,23.2113
33.4741,23.3026
33.5624,23.4176
33.6774,23.5059
33.8113,23.5613
33.9550,23.5802
34.0987,23.5613
34.2326,23.5059
34.3476,23.4176
34.4359,23.3026
34.4913,23.1687
34.5102,23.0250
34.5007,22.9526
34.4913,22.8813
34.4359,22.7474
34.3476,22.6324
34.2326,22.5441
34.2326,22.5441
34.0987,22.4887
34.0987,22.4887
33.9550,22.4697
33.8113,22.4887
33.8113,22.4887
33.6774,22.5441
33.6774,22.5441
33.5624,22.6324
33.5624,22.6324
33.4741,22.7474
33.4741,22.7474
33.4187,22.8813
33.4187,22.8813
33.3997,23.0250
12.4803,23.0250
12.5359,22.9526
12.5913,22.8187
12.6102,22.6750
12.6046,22.6324
12.5913,22.5313
12.5359,22.3974
12.4476,22.2824
12.3326,22.1941
12.3326,22.1941
12.1987,22.1387
12.1987,22.1387
12.0550,22.1197
11.9113,22.1387
11.9113,22.1387
11.7774,22.1941
11.7774,22.1941
11.6624,22.2824
11.6624,22.2824
11.5741,22.3974
11.5741,22.3974
11.5187,22.5313
11.5187,22.5313
11.4997,22.6750
0.7055,22.6750
0.7055,21.7250
1.1498,21.7250
1.1498,21.7250
1.1687,21.8687
1.1687,21.8687
1.2241,22.0026
1.3124,22.1176
1.4274,22.2059
1.5613,22.2613
1.7050,22.2802
1.8487,22.2613
1.9826,22.2059
2.0976,22.1176
2.1859,22.0026
2.2413,21.8687
2.2603,21.7250
2.2413,21.5813
2.1859,21.4474
2.0976,21.3324
1.9826,21.2441
1.9826,21.2441
1.8487,21.1887
1.8487,21.1887
1.7050,21.1698
1.5613,21.1887
1.5613,21.1887
1.4274,21.2441
1.4274,21.2441
1.3124,21.3324
1.3124,21.3324
1.2241,21.4474
1.2241,21.4474
1.1687,21.5813
1.1687,21.5813
1.1498,21.7250
0.7055,21.7250
0.7055,20.9250
10.3498,20.9250
10.3498,20.9250
10.3687,21.0687
10.3687,21.0687
10.4184,21.1887
10.4241,21.2026
10.5124,21.3176
10.6274,21.4059
10.7613,21.4613
10.9050,21.4802
11.0487,21.4613
11.1826,21.4059
11.2976,21.3176
11.3859,21.2026
11.4413,21.0687
11.4471,21.0250
33.3997,21.0250
33.3997,21.0250
33.4187,21.1687
33.4187,21.1687
33.4499,21.2441
33.4741,21.3026
33.5624,21.4176
33.6774,21.5059
33.8113,21.5613
33.9550,21.5802
34.0987,21.5613
34.2326,21.5059
34.3476,21.4176
34.4359,21.3026
34.4913,21.1687
34.5102,21.0250
34.4913,20.8813
34.4680,20.8250
36.7898,20.8250
36.8086,21.0281
36.8644,21.2242
36.9553,21.4068
37.0782,21.5696
37.2290,21.7070
37.4024,21.8143
37.5925,21.8880
37.7930,21.9255
37.9970,21.9255
38.1975,21.8880
38.3876,21.8143
38.5610,21.7070
38.7118,21.5696
38.8347,21.4068
38.9256,21.2242
38.9814,21.0281
39.0002,20.8250
39.3298,20.8250
39.3486,21.0281
39.4044,21.2242
39.4953,21.4068
39.6182,21.5696
39.7690,21.7070
39.9424,21.8143
40.1325,21.8880
40.3330,21.9255
40.5370,21.9255
40.7375,21.8880
40.9276,21.8143
41.1010,21.7070
41.2518,21.5696
41.3747,21.4068
41.4656,21.2242
41.5214,21.0281
41.5402,20.8250
41.5214,20.6219
41.4656,20.4258
41.3747,20.2432
41.2518,20.0804
41.1010,19.9430
40.9276,19.8357
40.7375,19.7620
40.7375,19.7620
40.7375,19.7620
40.5370,19.7245
40.3330,19.7245
40.1325,19.7620
40.0989,19.7750
39.9424,19.8357
39.8082,19.9187
39.7690,19.9430
39.6182,20.0804
39.4953,20.2432
39.4953,20.2432
39.4044,20.4257
39.4044,20.4258
39.3486,20.6219
39.3298,20.8250
39.0002,20.8250
38.9814,20.6219
38.9256,20.4258
38.8347,20.2432
38.7118,20.0804
38.5610,19.9430
38.3876,19.8357
38.1975,19.7620
38.1975,19.7620
38.1975,19.7620
37.9970,19.7245
37.7930,19.7245
37.5925,19.7620
37.5589,19.7750
37.4024,19.8357
37.2682,19.9187
37.2290,19.9430
37.0782,20.0804
36.9553,20.2432
36.9553,20.2432
36.8644,20.4257
36.8644,20.4258
36.8086,20.6219
36.7898,20.8250
34.4680,20.8250
34.4359,20.7474
34.3476,20.6324
34.2326,20.5441
34.2326,20.5441
34.0987,20.4887
34.0987,20.4887
33.9550,20.4697
33.8113,20.4887
33.8113,20.4887
33.6774,20.5441
33.6774,20.5441
33.5624,20.6324
33.5624,20.6324
33.4741,20.7474
33.4741,20.7474
33.4187,20.8813
33.4187,20.8813
33.3997,21.0250
11.4471,21.0250
11.4603,20.9250
11.4545,20.8813
11.4413,20.7813
11.3859,20.6474
11.2976,20.5324
11.1826,20.4441
11.1826,20.4441
11.0487,20.3887
11.0487,20.3887
10.9050,20.3697
10.7613,20.3887
10.7613,20.3887
10.6274,20.4441
10.6274,20.4441
10.5124,20.5324
10.5124,20.5324
10.4241,20.6474
10.4241,20.6474
10.3687,20.7813
10.3687,20.7813
10.3498,20.9250
0.7055,20.9250
0.7055,18.7250
11.7497,18.7250
11.7497,18.7250
11.7687,18.8687
11.7687,18.8687
11.8022,18.9496
11.8241,19.0026
11.9124,19.1176
11.9124,19.1176
11.9124,19.1176
11.9825,19.1715
12.0172,19.2219
12.0156,19.2830
11.9825,19.3285
11.9124,19.3824
11.9124,19.3824
11.8241,19.4974
11.8241,19.4974
11.7687,19.6313
11.7687,19.6313
11.7497,19.7750
11.7497,19.7750
11.7687,19.9187
11.7687,19.9187
11.8022,19.9996
11.8241,20.0526
11.9124,20.1676
12.0274,20.2559
12.1613,20.3113
12.3050,20.3302
12.4487,20.3113
12.5826,20.2559
12.6976,20.1676
12.7859,20.0526
12.7885,20.0462
12.8283,19.9996
12.8878,19.9854
12.9443,20.0088
12.9715,20.0462
12.9741,20.0526
13.0624,20.1676
13.1774,20.2559
13.3113,20.3113
13.4550,20.3302
13.5987,20.3113
13.7326,20.2559
13.8476,20.1676
13.9359,20.0526
13.9913,19.9187
14.0102,19.7750
14.0036,19.7245
13.9913,19.6313
13.9359,19.4974
13.8476,19.3824
13.8476,19.3824
13.8476,19.3824
13.8159,19.3580
13.7775,19.3285
13.7428,19.2781
13.7444,19.2170
13.7775,19.1715
13.8476,19.1176
13.9359,19.0026
13.9913,18.8687
14.0102,18.7250
13.9913,18.5813
13.9359,18.4474
13.8476,18.3324
13.7326,18.2441
13.7326,18.2441
13.5987,18.1887
13.5987,18.1887
13.4550,18.1698
13.3113,18.1887
13.3113,18.1887
13.1774,18.2441
13.1774,18.2441
13.0624,18.3324
13.0624,18.3324
12.9741,18.4474
12.9715,18.4538
12.9317,18.5004
12.8722,18.5146
12.8157,18.4912
12.7885,18.4538
12.7859,18.4474
12.7859,18.4474
12.6976,18.3324
12.5826,18.2441
12.5826,18.2441
12.4487,18.1887
12.4487,18.1887
12.3050,18.1698
12.1613,18.1887
12.1613,18.1887
12.0274,18.2441
12.0274,18.2441
11.9124,18.3324
11.9124,18.3324
11.8241,18.4474
11.8241,18.4474
11.7687,18.5813
11.7687,18.5813
11.7497,18.7250
0.7055,18.7250
0.7055,17.9250
25.9497,17.9250
25.9497,17.9250
25.9687,18.0687
25.9687,18.0687
26.0184,18.1887
26.0241,18.2026
26.1124,18.3176
26.2274,18.4059
26.3613,18.4613
26.5050,18.4802
26.6487,18.4613
26.7826,18.4059
26.8976,18.3176
26.9859,18.2026
27.0413,18.0687
27.0602,17.9250
27.0602,17.9250
30.6497,17.9250
30.6497,17.9250
30.6687,18.0687
30.6687,18.0687
30.7184,18.1887
30.7241,18.2026
30.8124,18.3176
30.9274,18.4059
31.0613,18.4613
31.2050,18.4802
31.3487,18.4613
31.4826,18.4059
31.5976,18.3176
31.6859,18.2026
31.7413,18.0687
31.7602,17.9250
31.7413,17.7813
31.6859,17.6474
31.5976,17.5324
31.4826,17.4441
31.4826,17.4441
31.3487,17.3887
31.3487,17.3887
31.2050,17.3697
31.0613,17.3887
31.0613,17.3887
30.9274,17.4441
30.9274,17.4441
30.8124,17.5324
30.8124,17.5324
30.7241,17.6474
30.7241,17.6474
30.6687,17.7813
30.6687,17.7813
30.6497,17.9250
27.0602,17.9250
27.0413,17.7813
26.9859,17.6474
26.8976,17.5324
26.7826,17.4441
26.7826,17.4441
26.6487,17.3887
26.6487,17.3887
26.5050,17.3697
26.3613,17.3887
26.3613,17.3887
26.2274,17.4441
26.2274,17.4441
26.1124,17.5324
26.1124,17.5324
26.0241,17.6474
26.0241,17.6474
25.9687,17.7813
25.9687,17.7813
25.9497,17.9250
0.7055,17.9250
0.7055,16.7750
12.6497,16.7750
12.6497,16.7750
12.6687,16.9187
12.6687,16.9187
12.7241,17.0526
12.8124,17.1676
12.9274,17.2559
13.0613,17.3113
13.2050,17.3302
13.3487,17.3113
13.4826,17.2559
13.5976,17.1676
13.6859,17.0526
13.7413,16.9187
13.7602,16.7750
13.7413,16.6313
13.6859,16.4974
13.5976,16.3824
13.4826,16.2941
13.4826,16.2941
13.3487,16.2387
13.3487,16.2387
13.2050,16.2197
13.0613,16.2387
13.0613,16.2387
12.9274,16.2941
12.9274,16.2941
12.8124,16.3824
12.8124,16.3824
12.7241,16.4974
12.7241,16.4974
12.6687,16.6313
12.6687,16.6313
12.6497,16.7750
0.7055,16.7750
0.7055,15.4605
37.3139,15.4605
37.3139,15.4605
37.3342,15.6665
37.3342,15.6665
37.3942,15.8645
37.4918,16.0470
37.6231,16.2069
37.6231,16.2069
37.6231,16.2069
37.7830,16.3382
37.7830,16.3382
37.7830,16.3382
37.9655,16.4358
38.1035,16.4776
38.1635,16.4958
38.1635,16.4958
38.3695,16.5161
38.3695,16.5161
38.3695,16.5161
38.5754,16.4958
38.5754,16.4958
38.7734,16.4358
38.9559,16.3382
39.1159,16.2069
39.2472,16.0470
39.3447,15.8645
39.4048,15.6665
39.4048,15.6665
39.4250,15.4605
39.4250,15.4605
39.4048,15.2546
39.4048,15.2546
39.3865,15.1945
39.3447,15.0566
39.2472,14.8741
39.2427,14.8687
39.1159,14.7141
39.1159,14.7141
38.9840,14.6059
38.9559,14.5828
38.7734,14.4853
38.5754,14.4252
38.5754,14.4252
38.3695,14.4050
38.3695,14.4050
38.1635,14.4252
38.1635,14.4252
37.9655,14.4853
37.7830,14.5828
37.6231,14.7141
37.6231,14.7141
37.4918,14.8741
37.3942,15.0566
37.3342,15.2546
37.3342,15.2546
37.3139,15.4605
0.7055,15.4605
0.7055,14.1250
2.3497,14.1250
2.3497,14.1250
2.3687,14.2687
2.3687,14.2687
2.3950,14.3324
2.4241,14.4026
2.5124,14.5176
2.6274,14.6059
2.7613,14.6613
2.9050,14.6802
3.0487,14.6613
3.1826,14.6059
3.2976,14.5176
3.3859,14.4026
3.4413,14.2687
3.4602,14.1250
3.4413,13.9813
3.3859,13.8474
3.3687,13.8250
5.6498,13.8250
5.6498,13.8250
5.6687,13.9687
5.6687,13.9687
5.7241,14.1026
5.7241,14.1026
5.7241,14.1026
5.8102,14.2147
5.8306,14.2724
5.8132,14.3311
5.8102,14.3353
5.7241,14.4474
5.7241,14.4474
5.6687,14.5813
5.6687,14.5813
5.6498,14.7250
5.6498,14.7250
5.6687,14.8687
5.6687,14.8687
5.7241,15.0026
5.8124,15.1176
5.9274,15.2059
6.0613,15.2613
6.2050,15.2802
6.3487,15.2613
6.4826,15.2059
6.5976,15.1176
6.6859,15.0026
6.7413,14.8687
6.7603,14.7250
6.7588,14.7141
6.7413,14.5813
6.6859,14.4474
6.5998,14.3353
6.5794,14.2776
6.5968,14.2189
6.5998,14.2148
6.6859,14.1026
6.7180,14.0250
28.6497,14.0250
28.6497,14.0250
28.6687,14.1687
28.6687,14.1687
28.7127,14.2750
28.7241,14.3026
28.8124,14.4176
28.9274,14.5059
29.0613,14.5613
29.2050,14.5802
29.3487,14.5613
29.4826,14.5059
29.5976,14.4176
29.6859,14.3026
29.7413,14.1687
29.7602,14.0250
29.7545,13.9813
29.7413,13.8813
29.6859,13.7474
29.5976,13.6324
29.4826,13.5441
29.4826,13.5441
29.3487,13.4887
29.3487,13.4887
29.2050,13.4697
29.0613,13.4887
29.0613,13.4887
28.9274,13.5441
28.9274,13.5441
28.8124,13.6324
28.8124,13.6324
28.7241,13.7474
28.7241,13.7474
28.6687,13.8813
28.6687,13.8813
28.6497,14.0250
6.7180,14.0250
6.7413,13.9687
6.7603,13.8250
6.7413,13.6813
6.6859,13.5474
6.5976,13.4324
6.4826,13.3441
6.4826,13.3441
6.3487,13.2887
6.3487,13.2887
6.2050,13.2698
6.0613,13.2887
6.0613,13.2887
5.9274,13.3441
5.9274,13.3441
5.8124,13.4324
5.8124,13.4324
5.7241,13.5474
5.7241,13.5474
5.6687,13.6813
5.6687,13.6813
5.6498,13.8250
3.3687,13.8250
3.2976,13.7324
3.1826,13.6441
3.1826,13.6441
3.0487,13.5887
3.0487,13.5887
2.9050,13.5697
2.7613,13.5887
2.7613,13.5887
2.6274,13.6441
2.6274,13.6441
2.5124,13.7324
2.5124,13.7324
2.4241,13.8474
2.4241,13.8474
2.3687,13.9813
2.3687,13.9813
2.3497,14.1250
0.7055,14.1250
0.7055,7.8250
8.5198,7.8250
8.5386,8.0281
8.5944,8.2242
8.6853,8.4068
8.8082,8.5696
8.9590,8.7070
9.1324,8.8143
9.3225,8.8880
9.5230,8.9255
9.7270,8.9255
9.9275,8.8880
10.1176,8.8143
10.2910,8.7070
10.4418,8.5696
10.5647,8.4068
10.6556,8.2242
10.7114,8.0281
10.7302,7.8250
11.0598,7.8250
11.0786,8.0281
11.1344,8.2242
11.2253,8.4068
11.3482,8.5696
11.4990,8.7070
11.6724,8.8143
11.8625,8.8880
12.0630,8.9255
12.2670,8.9255
12.4675,8.8880
12.6576,8.8143
12.8310,8.7070
12.9818,8.5696
13.1047,8.4068
13.1956,8.2242
13.2514,8.0281
13.2702,7.8250
13.5998,7.8250
13.6186,8.0281
13.6744,8.2242
13.7653,8.4068
13.8882,8.5696
14.0390,8.7070
14.2124,8.8143
14.4025,8.8880
14.6030,8.9255
14.8070,8.9255
15.0075,8.8880
15.1976,8.8143
15.3710,8.7070
15.5218,8.5696
15.6447,8.4068
15.7356,8.2242
15.7914,8.0281
15.8102,7.8250
16.1398,7.8250
16.1586,8.0281
16.2144,8.2242
16.3053,8.4068
16.4282,8.5696
16.5790,8.7070
16.7524,8.8143
16.9425,8.8880
17.1430,8.9255
17.3470,8.9255
17.5475,8.8880
17.7376,8.8143
17.9110,8.7070
18.0618,8.5696
18.1847,8.4068
18.2756,8.2242
18.3314,8.0281
18.3502,7.8250
18.6798,7.8250
18.6986,8.0281
18.7544,8.2242
18.8453,8.4068
18.9682,8.5696
19.1190,8.7070
19.2924,8.8143
19.4825,8.8880
19.6830,8.9255
19.8870,8.9255
20.0875,8.8880
20.2776,8.8143
20.4219,8.7250
31.7494,8.7250
31.7494,8.7250
31.7697,8.9309
31.7697,8.9309
31.8298,9.1290
31.9273,9.3115
32.0586,9.4714
32.0586,9.4714
32.0586,9.4714
32.2185,9.6027
32.2185,9.6027
32.2186,9.6027
32.4010,9.7002
32.5390,9.7421
32.5991,9.7603
32.5991,9.7603
32.8050,9.7806
32.8050,9.7806
32.8050,9.7806
33.0109,9.7603
33.0109,9.7603
33.2090,9.7002
33.3914,9.6027
33.5514,9.4714
33.6827,9.3114
33.7802,9.1290
33.8403,8.9309
33.8403,8.9309
33.8606,8.7250
33.8606,8.7250
33.8403,8.5191
33.8403,8.5191
33.8221,8.4590
33.7802,8.3210
33.6827,8.1386
33.5514,7.9786
33.5514,7.9786
33.3915,7.8473
33.2090,7.7498
33.0109,7.6897
33.0109,7.6897
32.8050,7.6694
32.8050,7.6694
32.5991,7.6897
32.5991,7.6897
32.4010,7.7498
32.2185,7.8473
32.0586,7.9786
32.0586,7.9786
31.9273,8.1385
31.8298,8.3210
31.7697,8.5191
31.7697,8.5191
31.7494,8.7250
20.4219,8.7250
20.4510,8.7070
20.6018,8.5696
20.7247,8.4068
20.8156,8.2242
20.8714,8.0281
20.8902,7.8250
20.8714,7.6219
20.8156,7.4257
20.7247,7.2432
20.6018,7.0804
20.4510,6.9430
20.2776,6.8357
20.0875,6.7620
20.0875,6.7620
20.0875,6.7620
19.8870,6.7245
19.6830,6.7245
19.4825,6.7620
19.4126,6.7891
19.2924,6.8357
19.1190,6.9430
18.9682,7.0804
18.8453,7.2432
18.8453,7.2432
18.7544,7.4257
18.7544,7.4257
18.6986,7.6219
18.6798,7.8250
18.3502,7.8250
18.3314,7.6219
18.2756,7.4257
18.1847,7.2432
18.0618,7.0804
17.9110,6.9430
17.7376,6.8357
17.5475,6.7620
17.5475,6.7620
17.5475,6.7620
17.3470,6.7245
17.1430,6.7245
16.9425,6.7620
16.8726,6.7891
16.7524,6.8357
16.5790,6.9430
16.4282,7.0804
16.3053,7.2432
16.3053,7.2432
16.2144,7.4257
16.2144,7.4257
16.1586,7.6219
16.1398,7.8250
15.8102,7.8250
15.7914,7.6219
15.7356,7.4257
15.6447,7.2432
15.5218,7.0804
15.3710,6.9430
15.1976,6.8357
15.0075,6.7620
15.0075,6.7620
15.0075,6.7620
14.8070,6.7245
14.6030,6.7245
14.4025,6.7620
14.3326,6.7891
14.2124,6.8357
14.0390,6.9430
13.8882,7.0804
13.7653,7.2432
13.7653,7.2432
13.6744,7.4257
13.6744,7.4257
13.6186,7.6219
13.5998,7.8250
13.2702,7.8250
13.2514,7.6219
13.1956,7.4257
13.1047,7.2432
12.9818,7.0804
12.8310,6.9430
12.6576,6.8357
12.4675,6.7620
12.4675,6.7620
12.4675,6.7620
12.2670,6.7245
12.0630,6.7245
11.8625,6.7620
11.7926,6.7891
11.6724,6.8357
11.4990,6.9430
11.3482,7.0804
11.2253,7.2432
11.2253,7.2432
11.1344,7.4257
11.1344,7.4257
11.0786,7.6219
11.0598,7.8250
10.7302,7.8250
10.7114,7.6219
10.6556,7.4257
10.5647,7.2432
10.4418,7.0804
10.2910,6.9430
10.1176,6.8357
9.9275,6.7620
9.9275,6.7620
9.9275,6.7620
9.7270,6.7245
9.5230,6.7245
9.3225,6.7620
9.2526,6.7891
9.1324,6.8357
8.9590,6.9430
8.8082,7.0804
8.6853,7.2432
8.6853,7.2432
8.5944,7.4257
8.5944,7.4257
8.5386,7.6219
8.5198,7.8250
0.7055,7.8250
0.7055,5.2850
8.5198,5.2850
8.5386,5.4881
8.5944,5.6842
8.6853,5.8668
8.8082,6.0296
8.9590,6.1670
9.1324,6.2743
9.3225,6.3480
9.5230,6.3855
9.7270,6.3855
9.9275,6.3480
10.1176,6.2743
10.2910,6.1670
10.4418,6.0296
10.5647,5.8668
10.6556,5.6842
10.7114,5.4881
10.7302,5.2850
11.0598,5.2850
11.0786,5.4881
11.1344,5.6842
11.2253,5.8668
11.3482,6.0296
11.4990,6.1670
11.6724,6.2743
11.8625,6.3480
12.0630,6.3855
12.2670,6.3855
12.4675,6.3480
12.6576,6.2743
12.8310,6.1670
12.9818,6.0296
13.1047,5.8668
13.1956,5.6842
13.2514,5.4881
13.2702,5.2850
13.5998,5.2850
13.6186,5.4881
13.6744,5.6842
13.7653,5.8668
13.8882,6.0296
14.0390,6.1670
14.2124,6.2743
14.4025,6.3480
14.6030,6.3855
14.8070,6.3855
15.0075,6.3480
15.1976,6.2743
15.3710,6.1670
15.5218,6.0296
15.6447,5.8668
15.7356,5.6842
15.7914,5.4881
15.8102,5.2850
16.1398,5.2850
16.1586,5.4881
16.2144,5.6842
16.3053,5.8668
16.4282,6.0296
16.5790,6.1670
16.7524,6.2743
16.9425,6.3480
17.1430,6.3855
17.3470,6.3855
17.5475,6.3480
17.7376,6.2743
17.9110,6.1670
18.0618,6.0296
18.1847,5.8668
18.2756,5.6842
18.3314,5.4881
18.3502,5.2850
18.6798,5.2850
18.6986,5.4881
18.7544,5.6842
18.8453,5.8668
18.9682,6.0296
19.1190,6.1670
19.2924,6.2743
19.4825,6.3480
19.6830,6.3855
19.8870,6.3855
20.0875,6.3480
20.2776,6.2743
20.4510,6.1670
20.6018,6.0296
20.7247,5.8668
20.8156,5.6842
20.8714,5.4881
20.8902,5.2850
20.8714,5.0819
20.8156,4.8857
20.7247,4.7032
20.6018,4.5404
20.4510,4.4030
20.2776,4.2957
20.0875,4.2220
20.0875,4.2220
20.0875,4.2220
19.8870,4.1845
19.6830,4.1845
19.4825,4.2220
19.4375,4.2394
19.2924,4.2957
19.1190,4.4030
18.9682,4.5404
18.8453,4.7032
18.8453,4.7032
18.7984,4.7975
18.7544,4.8857
18.6986,5.0819
18.6798,5.2850
18.3502,5.2850
18.3314,5.0819
18.2756,4.8857
18.1847,4.7032
18.0618,4.5404
17.9110,4.4030
17.7376,4.2957
17.5475,4.2220
17.5475,4.2220
17.5475,4.2220
17.3470,4.1845
17.1430,4.1845
16.9425,4.2220
16.8975,4.2394
16.7524,4.2957
16.5790,4.4030
16.4282,4.5404
16.3053,4.7032
16.3053,4.7032
16.2584,4.7975
16.2144,4.8857
16.1586,5.0819
16.1398,5.2850
15.8102,5.2850
15.7914,5.0819
15.7356,4.8857
15.6447,4.7032
15.5218,4.5404
15.3710,4.4030
15.1976,4.2957
15.0075,4.2220
15.0075,4.2220
15.0075,4.2220
14.8070,4.1845
14.6030,4.1845
14.4025,4.2220
14.3575,4.2394
14.2124,4.2957
14.0390,4.4030
13.8882,4.5404
13.7653,4.7032
13.7653,4.7032
13.7184,4.7975
13.6744,4.8857
13.6186,5.0819
13.5998,5.2850
13.2702,5.2850
13.2514,5.0819
13.1956,4.8857
13.1047,4.7032
12.9818,4.5404
12.8310,4.4030
12.6576,4.2957
12.4675,4.2220
12.4675,4.2220
12.4675,4.2220
12.2670,4.1845
12.0630,4.1845
11.8625,4.2220
11.8175,4.2394
11.6724,4.2957
11.4990,4.4030
11.3482,4.5404
11.2253,4.7032
11.2253,4.7032
11.1784,4.7975
11.1344,4.8857
11.0786,5.0819
11.0598,5.2850
10.7302,5.2850
10.7114,5.0819
10.6556,4.8857
10.5647,4.7032
10.4418,4.5404
10.2910,4.4030
10.1176,4.2957
9.9275,4.2220
9.9275,4.2220
9.9275,4.2220
9.7270,4.1845
9.5230,4.1845
9.3225,4.2220
9.2775,4.2394
9.1324,4.2957
8.9590,4.4030
8.8082,4.5404
8.6853,4.7032
8.6853,4.7032
8.6384,4.7975
8.5944,4.8857
8.5386,5.0819
8.5198,5.2850
0.7055,5.2850
0.7055,5.0272
0.7056,5.0228
0.7154,4.7975
0.7224,4.6371
0.7232,4.6286
0.7733,4.2479
0.7748,4.2395
0.8579,3.8647
0.8601,3.8563
0.9756,3.4902
0.9785,3.4821
0.9901,3.4542
1.1254,3.1274
1.1291,3.1196
1.3063,2.7791
1.3106,2.7716
1.5169,2.4478
1.5219,2.4408
1.7556,2.1362
1.7611,2.1296
2.0205,1.8465
2.0265,1.8405
2.3096,1.5811
2.3162,1.5756
2.6208,1.3419
2.6278,1.3369
2.9516,1.1306
2.9591,1.1263
3.2996,0.9491
3.3074,0.9454
3.6621,0.7985
3.6702,0.7956
4.0363,0.6801
4.0447,0.6779
4.4195,0.5948
4.4279,0.5933
4.8086,0.5432
4.8171,0.5424
5.2028,0.5256
5.2072,0.5255
5.2709,0.5255
40.1391,0.5255
40.2028,0.5255
Z" /> 
</g>
<g style="fill:#FFFFFF; fill-opacity:1.0000; stroke:none;">
<circle cx="24.7050" cy="45.5250" r="0.1500" /> 
</g>
<g style="fill:#FFFFFF; fill-opacity:1.0000; stroke:none;">
<circle cx="22.6050" cy="47.6250" r="0.1500" /> 
</g>
<g style="fill:#FFFFFF; fill-opacity:1.0000; stroke:none;">
<circle cx="16.8550" cy="60.4250" r="0.1500" /> 
</g>
<g style="fill:#FFFFFF; fill-opacity:1.0000; stroke:none;">
<circle cx="19.7050" cy="66.0750" r="0.1500" /> 
</g>
<g style="fill:#FFFFFF; fill-opacity:1.0000; stroke:none;">
<circle cx="22.1550" cy="65.0750" r="0.1500" /> 
</g>
<g style="fill:#FFFFFF; fill-opacity:1.0000; stroke:none;">
<circle cx="22.2050" cy="61.9750" r="0.1500" /> 
</g>
<g style="fill:#FFFFFF; fill-opacity:1.0000; stroke:none;">
<circle cx="22.2050" cy="63.5250" r="0.1500" /> 
</g>
<g style="fill:#FFFFFF; fill-opacity:1.0000; stroke:none;">
<circle cx="23.9550" cy="64.5250" r="0.1500" /> 
</g>
<g style="fill:#FFFFFF; fill-opacity:1.0000; stroke:none;">
<circle cx="24.6050" cy="54.8250" r="0.1500" /> 
</g>
<g style="fill:#FFFFFF; fill-opacity:1.0000; stroke:none;">
<circle cx="23.7050" cy="61.0250" r="0.1500" /> 
</g>
<g style="fill:#FFFFFF; fill-opacity:1.0000; stroke:none;">
<circle cx="10.9050" cy="48.9250" r="0.1500" /> 
</g>
<g style="fill:#FFFFFF; fill-opacity:1.0000; stroke:none;">
<circle cx="9.7050" cy="46.9750" r="0.1500" /> 
</g>
<g style="fill:#FFFFFF; fill-opacity:1.0000; stroke:none;">
<circle cx="9.0050" cy="48.7250" r="0.1500" /> 
</g>
<g style="fill:#FFFFFF; fill-opacity:1.0000; stroke:none;">
<circle cx="10.9550" cy="46.0250" r="0.1500" /> 
</g>
<g style="fill:#FFFFFF; fill-opacity:1.0000; stroke:none;">
<circle cx="7.2050" cy="49.2750" r="0.1500" /> 
</g>
<g style="fill:#FFFFFF; fill-opacity:1.0000; stroke:none;">
<circle cx="19.4550" cy="69.0250" r="0.1500" /> 
</g>
<g style="fill:#FFFFFF; fill-opacity:1.0000; stroke:none;">
<circle cx="30.7050" cy="57.0250" r="0.1500" /> 
</g>
<g style="fill:#FFFFFF; fill-opacity:1.0000; stroke:none;">
<circle cx="31.4550" cy="47.2750" r="0.1500" /> 
</g>
<g style="fill:#FFFFFF; fill-opacity:1.0000; stroke:none;">
<circle cx="29.9550" cy="45.5250" r="0.1500" /> 
</g>
<g style="fill:#FFFFFF; fill-opacity:1.0000; stroke:none;">
<circle cx="34.4550" cy="24.5250" r="0.1500" /> 
</g>
<g style="fill:#FFFFFF; fill-opacity:1.0000; stroke:none;">
<circle cx="33.9550" cy="21.0250" r="0.1500" /> 
</g>
<g style="fill:#FFFFFF; fill-opacity:1.0000; stroke:none;">
<circle cx="29.2050" cy="14.0250" r="0.1500" /> 
</g>
<g style="fill:#FFFFFF; fill-opacity:1.0000; stroke:none;">
<circle cx="35.9550" cy="24.5250" r="0.1500" /> 
</g>
<g style="fill:#FFFFFF; fill-opacity:1.0000; stroke:none;">
<circle cx="33.9550" cy="23.0250" r="0.1500" /> 
</g>
<g style="fill:#FFFFFF; fill-opacity:1.0000; stroke:none;">
<circle cx="27.2050" cy="63.0250" r="0.1500" /> 
</g>
<g style="fill:#FFFFFF; fill-opacity:1.0000; stroke:none;">
<circle cx="26.4550" cy="62.5250" r="0.1500" /> 
</g>
<g style="fill:#FFFFFF; fill-opacity:1.0000; stroke:none;">
<circle cx="18.9550" cy="68.2750" r="0.1500" /> 
</g>
<g style="fill:#FFFFFF; fill-opacity:1.0000; stroke:none;">
<circle cx="18.4550" cy="67.5250" r="0.1500" /> 
</g>
<g style="fill:#FFFFFF; fill-opacity:1.0000; stroke:none;">
<circle cx="15.0550" cy="60.8750" r="0.1500" /> 
</g>
<g style="fill:#FFFFFF; fill-opacity:1.0000; stroke:none;">
<circle cx="5.7050" cy="64.7750" r="0.1500" /> 
</g>
<g style="fill:#FFFFFF; fill-opacity:1.0000; stroke:none;">
<circle cx="6.9550" cy="64.7750" r="0.1500" /> 
</g>
<g style="fill:#FFFFFF; fill-opacity:1.0000; stroke:none;">
<circle cx="31.4550" cy="72.0250" r="0.1500" /> 
</g>
<g style="fill:#FFFFFF; fill-opacity:1.0000; stroke:none;">
<circle cx="37.2050" cy="67.2750" r="0.1500" /> 
</g>
<g style="fill:#FFFFFF; fill-opacity:1.0000; stroke:none;">
<circle cx="6.2050" cy="49.2750" r="0.1500" /> 
</g>
<g style="fill:#FFFFFF; fill-opacity:1.0000; stroke:none;">
<circle cx="6.9550" cy="48.0250" r="0.1500" /> 
</g>
<g style="fill:#FFFFFF; fill-opacity:1.0000; stroke:none;">
<circle cx="10.0050" cy="48.9250" r="0.1500" /> 
</g>
<g style="fill:#FFFFFF; fill-opacity:1.0000; stroke:none;">
<circle cx="9.2050" cy="47.7750" r="0.1500" /> 
</g>
<g style="fill:#FFFFFF; fill-opacity:1.0000; stroke:none;">
<circle cx="9.9550" cy="46.0250" r="0.1500" /> 
</g>
<g style="fill:#FFFFFF; fill-opacity:1.0000; stroke:none;">
<circle cx="11.9550" cy="46.0250" r="0.1500" /> 
</g>
<g style="fill:#FFFFFF; fill-opacity:1.0000; stroke:none;">
<circle cx="13.2050" cy="16.7750" r="0.1500" /> 
</g>
<g style="fill:#FFFFFF; fill-opacity:1.0000; stroke:none;">
<circle cx="12.0550" cy="22.6750" r="0.1500" /> 
</g>
<g style="fill:#FFFFFF; fill-opacity:1.0000; stroke:none;">
<circle cx="31.4050" cy="46.3750" r="0.1500" /> 
</g>
<g style="fill:#FFFFFF; fill-opacity:1.0000; stroke:none;">
<circle cx="30.8550" cy="45.7750" r="0.1500" /> 
</g>
<g style="fill:#FFFFFF; fill-opacity:1.0000; stroke:none;">
<circle cx="12.3050" cy="19.7750" r="0.1500" /> 
</g>
<g style="fill:#FFFFFF; fill-opacity:1.0000; stroke:none;">
<circle cx="13.4550" cy="19.7750" r="0.1500" /> 
</g>
<g style="fill:#FFFFFF; fill-opacity:1.0000; stroke:none;">
<circle cx="13.4550" cy="18.7250" r="0.1500" /> 
</g>
<g style="fill:#FFFFFF; fill-opacity:1.0000; stroke:none;">
<circle cx="12.3050" cy="18.7250" r="0.1500" /> 
</g>
<g style="fill:#FFFFFF; fill-opacity:1.0000; stroke:none;">
<circle cx="31.3050" cy="21.2750" r="0.1500" /> 
</g>
<g style="fill:#FFFFFF; fill-opacity:1.0000; stroke:none;">
<circle cx="28.8050" cy="21.2750" r="0.1500" /> 
</g>
<g style="fill:#FFFFFF; fill-opacity:1.0000; stroke:none;">
<circle cx="30.0550" cy="21.2750" r="0.1500" /> 
</g>
<g style="fill:#FFFFFF; fill-opacity:1.0000; stroke:none;">
<circle cx="27.6550" cy="20.9250" r="0.1500" /> 
</g>
<g style="fill:#FFFFFF; fill-opacity:1.0000; stroke:none;">
<circle cx="26.7050" cy="20.0750" r="0.1500" /> 
</g>
<g style="fill:#FFFFFF; fill-opacity:1.0000; stroke:none;">
<circle cx="25.8550" cy="19.2250" r="0.1500" /> 
</g>
<g style="fill:#FFFFFF; fill-opacity:1.0000; stroke:none;">
<circle cx="22.3050" cy="16.0250" r="0.1500" /> 
</g>
<g style="fill:#FFFFFF; fill-opacity:1.0000; stroke:none;">
<circle cx="21.5050" cy="14.9750" r="0.1500" /> 
</g>
<g style="fill:#FFFFFF; fill-opacity:1.0000; stroke:none;">
<circle cx="21.5050" cy="13.7250" r="0.1500" /> 
</g>
<g style="fill:#FFFFFF; fill-opacity:1.0000; stroke:none;">
<circle cx="24.8050" cy="18.6250" r="0.1500" /> 
</g>
<g style="fill:#FFFFFF; fill-opacity:1.0000; stroke:none;">
<circle cx="21.5050" cy="11.2250" r="0.1500" /> 
</g>
<g style="fill:#FFFFFF; fill-opacity:1.0000; stroke:none;">
<circle cx="23.2050" cy="17.0750" r="0.1500" /> 
</g>
<g style="fill:#FFFFFF; fill-opacity:1.0000; stroke:none;">
<circle cx="21.5050" cy="12.4750" r="0.1500" /> 
</g>
<g style="fill:#FFFFFF; fill-opacity:1.0000; stroke:none;">
<circle cx="10.9050" cy="20.9250" r="0.1500" /> 
</g>
<g style="fill:#FFFFFF; fill-opacity:1.0000; stroke:none;">
<circle cx="26.5050" cy="17.9250" r="0.1500" /> 
</g>
<g style="fill:#FFFFFF; fill-opacity:1.0000; stroke:none;">
<circle cx="31.2050" cy="17.9250" r="0.1500" /> 
</g>
<g style="fill:#FFFFFF; fill-opacity:1.0000; stroke:none;">
<circle cx="30.5050" cy="17.3250" r="0.1500" /> 
</g>
<g style="fill:#FFFFFF; fill-opacity:1.0000; stroke:none;">
<circle cx="23.7050" cy="16.0250" r="0.1500" /> 
</g>
<g style="fill:#FFFFFF; fill-opacity:1.0000; stroke:none;">
<circle cx="2.9050" cy="14.1250" r="0.1500" /> 
</g>
<g style="fill:#FFFFFF; fill-opacity:1.0000; stroke:none;">
<circle cx="11.7050" cy="27.7750" r="0.1500" /> 
</g>
<g style="fill:#FFFFFF; fill-opacity:1.0000; stroke:none;">
<circle cx="11.9550" cy="30.5250" r="0.1500" /> 
</g>
<g style="fill:#FFFFFF; fill-opacity:1.0000; stroke:none;">
<circle cx="3.9550" cy="35.2750" r="0.1500" /> 
</g>
<g style="fill:#FFFFFF; fill-opacity:1.0000; stroke:none;">
<circle cx="43.9550" cy="25.0250" r="0.1500" /> 
</g>
<g style="fill:#FFFFFF; fill-opacity:1.0000; stroke:none;">
<circle cx="41.4550" cy="25.0250" r="0.1500" /> 
</g>
<g style="fill:#FFFFFF; fill-opacity:1.0000; stroke:none;">
<circle cx="38.9550" cy="25.0250" r="0.1500" /> 
</g>
<g style="fill:#FFFFFF; fill-opacity:1.0000; stroke:none;">
<circle cx="32.2050" cy="11.5250" r="0.1500" /> 
</g>
<g style="fill:#FFFFFF; fill-opacity:1.0000; stroke:none;">
<circle cx="31.4550" cy="10.7750" r="0.1500" /> 
</g>
<g style="fill:#FFFFFF; fill-opacity:1.0000; stroke:none;">
<circle cx="33.7050" cy="13.0250" r="0.1500" /> 
</g>
<g style="fill:#FFFFFF; fill-opacity:1.0000; stroke:none;">
<circle cx="34.4550" cy="13.7750" r="0.1500" /> 
</g>
<g style="fill:#FFFFFF; fill-opacity:1.0000; stroke:none;">
<circle cx="35.9550" cy="23.2750" r="0.1500" /> 
</g>
<g style="fill:#FFFFFF; fill-opacity:1.0000; stroke:none;">
<circle cx="36.9550" cy="24.2750" r="0.1500" /> 
</g>
<g style="fill:#FFFFFF; fill-opacity:1.0000; stroke:none;">
<circle cx="8.9550" cy="10.0250" r="0.1500" /> 
</g>
<g style="fill:#FFFFFF; fill-opacity:1.0000; stroke:none;">
<circle cx="16.4550" cy="10.0250" r="0.1500" /> 
</g>
<g style="fill:#FFFFFF; fill-opacity:1.0000; stroke:none;">
<circle cx="18.9550" cy="10.0250" r="0.1500" /> 
</g>
<g style="fill:#FFFFFF; fill-opacity:1.0000; stroke:none;">
<circle cx="21.4550" cy="10.0250" r="0.1500" /> 
</g>
<g style="fill:#FFFFFF; fill-opacity:1.0000; stroke:none;">
<circle cx="23.9550" cy="10.0250" r="0.1500" /> 
</g>
<g style="fill:#FFFFFF; fill-opacity:1.0000; stroke:none;">
<circle cx="26.4550" cy="10.0250" r="0.1500" /> 
</g>
<g style="fill:#FFFFFF; fill-opacity:1.0000; stroke:none;">
<circle cx="28.9550" cy="10.0250" r="0.1500" /> 
</g>
<g style="fill:#FFFFFF; fill-opacity:1.0000; stroke:none;">
<circle cx="35.2050" cy="16.2750" r="0.1500" /> 
</g>
<g style="fill:#FFFFFF; fill-opacity:1.0000; stroke:none;">
<circle cx="35.2050" cy="18.7750" r="0.1500" /> 
</g>
<g style="fill:#FFFFFF; fill-opacity:1.0000; stroke:none;">
<circle cx="35.2050" cy="21.2750" r="0.1500" /> 
</g>
<g style="fill:#FFFFFF; fill-opacity:1.0000; stroke:none;">
<circle cx="42.7050" cy="25.0250" r="0.1500" /> 
</g>
<g style="fill:#FFFFFF; fill-opacity:1.0000; stroke:none;">
<circle cx="40.2050" cy="25.0250" r="0.1500" /> 
</g>
<g style="fill:#FFFFFF; fill-opacity:1.0000; stroke:none;">
<circle cx="37.7050" cy="25.0250" r="0.1500" /> 
</g>
<g style="fill:#FFFFFF; fill-opacity:1.0000; stroke:none;">
<circle cx="7.7050" cy="10.0250" r="0.1500" /> 
</g>
<g style="fill:#FFFFFF; fill-opacity:1.0000; stroke:none;">
<circle cx="10.2050" cy="10.0250" r="0.1500" /> 
</g>
<g style="fill:#FFFFFF; fill-opacity:1.0000; stroke:none;">
<circle cx="15.2050" cy="10.0250" r="0.1500" /> 
</g>
<g style="fill:#FFFFFF; fill-opacity:1.0000; stroke:none;">
<circle cx="20.2050" cy="10.0250" r="0.1500" /> 
</g>
<g style="fill:#FFFFFF; fill-opacity:1.0000; stroke:none;">
<circle cx="22.7050" cy="10.0250" r="0.1500" /> 
</g>
<g style="fill:#FFFFFF; fill-opacity:1.0000; stroke:none;">
<circle cx="25.2050" cy="10.0250" r="0.1500" /> 
</g>
<g style="fill:#FFFFFF; fill-opacity:1.0000; stroke:none;">
<circle cx="27.7050" cy="10.0250" r="0.1500" /> 
</g>
<g style="fill:#FFFFFF; fill-opacity:1.0000; stroke:none;">
<circle cx="30.2050" cy="10.0250" r="0.1500" /> 
</g>
<g style="fill:#FFFFFF; fill-opacity:1.0000; stroke:none;">
<circle cx="32.9550" cy="12.2750" r="0.1500" /> 
</g>
<g style="fill:#FFFFFF; fill-opacity:1.0000; stroke:none;">
<circle cx="35.2050" cy="15.0250" r="0.1500" /> 
</g>
<g style="fill:#FFFFFF; fill-opacity:1.0000; stroke:none;">
<circle cx="35.2050" cy="17.5250" r="0.1500" /> 
</g>
<g style="fill:#FFFFFF; fill-opacity:1.0000; stroke:none;">
<circle cx="35.2050" cy="20.0250" r="0.1500" /> 
</g>
<g style="fill:#FFFFFF; fill-opacity:1.0000; stroke:none;">
<circle cx="2.4050" cy="17.2250" r="0.1500" /> 
</g>
<g style="fill:#FFFFFF; fill-opacity:1.0000; stroke:none;">
<circle cx="2.4050" cy="16.4250" r="0.1500" /> 
</g>
<g style="fill:#FFFFFF; fill-opacity:1.0000; stroke:none;">
<circle cx="6.2050" cy="14.7250" r="0.1500" /> 
</g>
<g style="fill:#FFFFFF; fill-opacity:1.0000; stroke:none;">
<circle cx="6.2050" cy="13.8250" r="0.1500" /> 
</g>
<g style="fill:#FFFFFF; fill-opacity:1.0000; stroke:none;">
<circle cx="9.3050" cy="32.2250" r="0.1500" /> 
</g>
<g style="fill:#FFFFFF; fill-opacity:1.0000; stroke:none;">
<circle cx="10.4550" cy="32.5250" r="0.1500" /> 
</g>
<g style="fill:#FFFFFF; fill-opacity:1.0000; stroke:none;">
<circle cx="9.7550" cy="25.0750" r="0.1500" /> 
</g>
<g style="fill:#FFFFFF; fill-opacity:1.0000; stroke:none;">
<circle cx="9.7550" cy="24.1750" r="0.1500" /> 
</g>
<g style="fill:#FFFFFF; fill-opacity:1.0000; stroke:none;">
<circle cx="10.3050" cy="31.4250" r="0.1500" /> 
</g>
<g style="fill:#FFFFFF; fill-opacity:1.0000; stroke:none;">
<circle cx="11.2050" cy="31.4250" r="0.1500" /> 
</g>
<g style="fill:#FFFFFF; fill-opacity:1.0000; stroke:none;">
<circle cx="10.3050" cy="26.6250" r="0.1500" /> 
</g>
<g style="fill:#FFFFFF; fill-opacity:1.0000; stroke:none;">
<circle cx="11.2050" cy="26.6250" r="0.1500" /> 
</g>
<g style="fill:#FFFFFF; fill-opacity:1.0000; stroke:none;">
<circle cx="6.7550" cy="21.1750" r="0.1500" /> 
</g>
<g style="fill:#FFFFFF; fill-opacity:1.0000; stroke:none;">
<circle cx="1.7050" cy="21.7250" r="0.1500" /> 
</g>
<g style="fill:#FFFFFF; fill-opacity:1.0000; stroke:none;">
<circle cx="2.2050" cy="7.1250" r="0.1500" /> 
</g>
<g style="fill:#FFFFFF; fill-opacity:1.0000; stroke:none;">
<circle cx="16.8050" cy="62.4750" r="0.1500" /> 
</g>
<g style="fill:#FFFFFF; fill-opacity:1.0000; stroke:none;">
<circle cx="29.3050" cy="50.5250" r="0.1500" /> 
</g>
<g style="fill:#FFFFFF; fill-opacity:1.0000; stroke:none;">
<circle cx="27.3050" cy="54.8250" r="0.1500" /> 
</g>
<g style="fill:#FFFFFF; fill-opacity:1.0000; stroke:none;">
<circle cx="18.0550" cy="66.0750" r="0.1500" /> 
</g>
<g style="fill:#FFFFFF; fill-opacity:1.0000; stroke:none;">
<circle cx="18.0050" cy="41.1250" r="0.1500" /> 
</g>
<g style="fill:#FFFFFF; fill-opacity:1.0000; stroke:none;">
<circle cx="26.5050" cy="43.9250" r="0.1500" /> 
</g>
<g style="fill:#FFFFFF; fill-opacity:1.0000; stroke:none;">
<circle cx="20.7050" cy="59.8250" r="0.1500" /> 
</g>
<g style="fill:#FFFFFF; fill-opacity:1.0000; stroke:none;">
<circle cx="16.9050" cy="64.7250" r="0.1500" /> 
</g>
<g style="fill:#FFFFFF; fill-opacity:1.0000; stroke:none;">
<circle cx="25.2050" cy="46.6250" r="0.1500" /> 
</g>
<g style="fill:#FFFFFF; fill-opacity:1.0000; stroke:none;">
<circle cx="18.7050" cy="58.0250" r="0.1500" /> 
</g>
<g style="fill:#FFFFFF; fill-opacity:1.0000; stroke:none;">
<circle cx="29.3050" cy="49.6250" r="0.1500" /> 
</g>
<g style="fill:#FFFFFF; fill-opacity:1.0000; stroke:none;">
<circle cx="21.4050" cy="60.7250" r="0.1500" /> 
</g>
<g style="fill:#FFFFFF; fill-opacity:1.0000; stroke:none;">
<circle cx="19.8050" cy="61.0250" r="0.1500" /> 
</g>
<g style="fill:#FFFFFF; fill-opacity:1.0000; stroke:none;">
<circle cx="17.3550" cy="59.0750" r="0.1500" /> 
</g>
<g style="fill:#FFFFFF; fill-opacity:1.0000; stroke:none;">
<circle cx="12.8050" cy="51.5250" r="0.1500" /> 
</g>
<g style="fill:#FFFFFF; fill-opacity:1.0000; stroke:none;">
<circle cx="21.2050" cy="66.0750" r="0.1500" /> 
</g>
<g style="fill:#FFFFFF; fill-opacity:1.0000; stroke:none;">
<circle cx="13.0050" cy="43.2250" r="0.1500" /> 
</g>
<g style="fill:#FFFFFF; fill-opacity:1.0000; stroke:none;">
<circle cx="13.2050" cy="46.0250" r="0.1500" /> 
</g>
<g style="fill:#FFFFFF; fill-opacity:1.0000; stroke:none;">
<circle cx="12.6050" cy="41.0250" r="0.1500" /> 
</g>
<g style="fill:#FFFFFF; fill-opacity:1.0000; stroke:none;">
<circle cx="26.8050" cy="49.6250" r="0.1500" /> 
</g>
<g style="fill:#FFFFFF; fill-opacity:1.0000; stroke:none;">
<circle cx="20.8050" cy="47.9250" r="0.1500" /> 
</g>
<g style="fill:#FFFFFF; fill-opacity:1.0000; stroke:none;">
<circle cx="13.5050" cy="48.9250" r="0.1500" /> 
</g>
<g style="fill:#FFFFFF; fill-opacity:1.0000; stroke:none;">
<circle cx="20.2050" cy="52.1250" r="0.1500" /> 
</g>
<g style="fill:#FFFFFF; fill-opacity:1.0000; stroke:none;">
<circle cx="20.8050" cy="42.3250" r="0.1500" /> 
</g>
<g style="fill:#FFFFFF; fill-opacity:1.0000; stroke:none;">
<circle cx="20.8050" cy="56.3250" r="0.1500" /> 
</g>
<g style="fill:#FFFFFF; fill-opacity:1.0000; stroke:none;">
<circle cx="18.1050" cy="49.2250" r="0.1500" /> 
</g>
<g style="fill:#FFFFFF; fill-opacity:1.0000; stroke:none;">
<circle cx="22.3050" cy="49.6250" r="0.1500" /> 
</g>
<g style="fill:#FFFFFF; fill-opacity:1.0000; stroke:none;">
<circle cx="20.8050" cy="41.5250" r="0.1500" /> 
</g>
<g style="fill:#FFFFFF; fill-opacity:1.0000; stroke:none;">
<circle cx="14.2050" cy="65.7750" r="0.6500" /> 
</g>
<g style="fill:#FFFFFF; fill-opacity:1.0000; stroke:none;">
<circle cx="14.2050" cy="72.2750" r="0.6500" /> 
</g>
<g style="fill:#FFFFFF; fill-opacity:1.0000; stroke:none;">
<circle cx="9.7050" cy="65.7750" r="0.6500" /> 
</g>
<g style="fill:#FFFFFF; fill-opacity:1.0000; stroke:none;">
<circle cx="9.7050" cy="72.2750" r="0.6500" /> 
</g>
<g style="fill:#FFFFFF; fill-opacity:1.0000; stroke:none;">
<circle cx="6.8100" cy="26.1350" r="0.3250" /> 
</g>
<g style="fill:#FFFFFF; fill-opacity:1.0000; stroke:none;">
<circle cx="6.8100" cy="31.9150" r="0.3250" /> 
</g>
<g style="fill:none; 
stroke:#FFFFFF; stroke-width:0.6000; stroke-opacity:1; 
stroke-linecap:round; stroke-linejoin:round;">
<path d="M7.8600 24.7050
L6.7600 24.7050
" />
<path d="M3.4300 24.7050
L2.8300 24.7050
" />
<path d="M7.8600 33.3450
L6.7600 33.3450
" />
<path d="M3.4300 33.3450
L2.8300 33.3450
" />
</g>
<g style="fill:#FFFFFF; fill-opacity:1.0000; stroke:none;">
<circle cx="40.2050" cy="70.0250" r="1.1000" /> 
</g>
<g style="fill:#FFFFFF; fill-opacity:1.0000; stroke:none;">
<circle cx="5.2050" cy="70.0250" r="1.1000" /> 
</g>
<g style="fill:#FFFFFF; fill-opacity:1.0000; stroke:none;">
<circle cx="40.2050" cy="5.0250" r="1.1000" /> 
</g>
<g style="fill:#FFFFFF; fill-opacity:1.0000; stroke:none;">
<circle cx="5.2050" cy="5.0250" r="1.1000" /> 
</g>
<g style="fill:#FFFFFF; fill-opacity:1.0000; stroke:none;">
<circle cx="37.8950" cy="20.8250" r="0.5000" /> 
</g>
<g style="fill:#FFFFFF; fill-opacity:1.0000; stroke:none;">
<circle cx="40.4350" cy="20.8250" r="0.5000" /> 
</g>
<g style="fill:#FFFFFF; fill-opacity:1.0000; stroke:none;">
<circle cx="42.9750" cy="20.8250" r="0.5000" /> 
</g>
<g style="fill:#FFFFFF; fill-opacity:1.0000; stroke:none;">
<circle cx="19.7850" cy="2.7450" r="0.5000" /> 
</g>
<g style="fill:#FFFFFF; fill-opacity:1.0000; stroke:none;">
<circle cx="17.2450" cy="2.7450" r="0.5000" /> 
</g>
<g style="fill:#FFFFFF; fill-opacity:1.0000; stroke:none;">
<circle cx="14.7050" cy="2.7450" r="0.5000" /> 
</g>
<g style="fill:#FFFFFF; fill-opacity:1.0000; stroke:none;">
<circle cx="12.1650" cy="2.7450" r="0.5000" /> 
</g>
<g style="fill:#FFFFFF; fill-opacity:1.0000; stroke:none;">
<circle cx="9.6250" cy="2.7450" r="0.5000" /> 
</g>
<g style="fill:#FFFFFF; fill-opacity:1.0000; stroke:none;">
<circle cx="19.7850" cy="5.2850" r="0.5000" /> 
</g>
<g style="fill:#FFFFFF; fill-opacity:1.0000; stroke:none;">
<circle cx="17.2450" cy="5.2850" r="0.5000" /> 
</g>
<g style="fill:#FFFFFF; fill-opacity:1.0000; stroke:none;">
<circle cx="14.7050" cy="5.2850" r="0.5000" /> 
</g>
<g style="fill:#FFFFFF; fill-opacity:1.0000; stroke:none;">
<circle cx="12.1650" cy="5.2850" r="0.5000" /> 
</g>
<g style="fill:#FFFFFF; fill-opacity:1.0000; stroke:none;">
<circle cx="9.6250" cy="5.2850" r="0.5000" /> 
</g>
<g style="fill:#FFFFFF; fill-opacity:1.0000; stroke:none;">
<circle cx="19.7850" cy="7.8250" r="0.5000" /> 
</g>
<g style="fill:#FFFFFF; fill-opacity:1.0000; stroke:none;">
<circle cx="17.2450" cy="7.8250" r="0.5000" /> 
</g>
<g style="fill:#FFFFFF; fill-opacity:1.0000; stroke:none;">
<circle cx="14.7050" cy="7.8250" r="0.5000" /> 
</g>
<g style="fill:#FFFFFF; fill-opacity:1.0000; stroke:none;">
<circle cx="12.1650" cy="7.8250" r="0.5000" /> 
</g>
<g style="fill:#FFFFFF; fill-opacity:1.0000; stroke:none;">
<circle cx="9.6250" cy="7.8250" r="0.5000" /> 
</g>
<g style="fill:#FFFFFF; fill-opacity:1.0000; stroke:none;">
<circle cx="41.9050" cy="11.9250" r="0.5000" /> 
</g>
<g style="fill:#FFFFFF; fill-opacity:1.0000; stroke:none;">
<circle cx="38.3695" cy="15.4605" r="0.5000" /> 
</g>
<g style="fill:#FFFFFF; fill-opacity:1.0000; stroke:none;">
<circle cx="32.8050" cy="8.7250" r="0.5000" /> 
</g>
<g style="fill:#FFFFFF; fill-opacity:1.0000; stroke:none;">
<circle cx="32.8050" cy="3.7250" r="0.5000" /> 
</g>
<g style="fill:#FFFFFF; fill-opacity:1.0000; stroke:none;">
<circle cx="34.2050" cy="65.7750" r="0.6500" /> 
</g>
<g style="fill:#FFFFFF; fill-opacity:1.0000; stroke:none;">
<circle cx="34.2050" cy="72.2750" r="0.6500" /> 
</g>
<g style="fill:#FFFFFF; fill-opacity:1.0000; stroke:none;">
<circle cx="19.3550" cy="49.1750" r="0.1062" /> 
</g>
<g style="fill:#FFFFFF; fill-opacity:1.0000; stroke:none;">
<circle cx="19.3550" cy="50.0250" r="0.1062" /> 
</g>
<g style="fill:#FFFFFF; fill-opacity:1.0000; stroke:none;">
<circle cx="19.3550" cy="50.8750" r="0.1062" /> 
</g>
<g style="fill:#FFFFFF; fill-opacity:1.0000; stroke:none;">
<circle cx="20.2050" cy="49.1750" r="0.1062" /> 
</g>
<g style="fill:#FFFFFF; fill-opacity:1.0000; stroke:none;">
<circle cx="20.2050" cy="50.0250" r="0.1062" /> 
</g>
<g style="fill:#FFFFFF; fill-opacity:1.0000; stroke:none;">
<circle cx="20.2050" cy="50.8750" r="0.1062" /> 
</g>
<g style="fill:#FFFFFF; fill-opacity:1.0000; stroke:none;">
<circle cx="21.0550" cy="49.1750" r="0.1062" /> 
</g>
<g style="fill:#FFFFFF; fill-opacity:1.0000; stroke:none;">
<circle cx="21.0550" cy="50.0250" r="0.1062" /> 
</g>
<g style="fill:#FFFFFF; fill-opacity:1.0000; stroke:none;">
<circle cx="21.0550" cy="50.8750" r="0.1062" /> 
</g> 
</svg>
